<svg width="5.833vw" height="5.885vh" margin="6.25vw" viewBox="0 0 112 113" fill="none" xmlns="http://www.w3.org/2000/svg">
<g id="ic:baseline-phone-iphone">
<path id="Vector" d="M72.3335 4.8457H35.0002C31.906 4.8457 28.9385 6.07968 26.7506 8.27617C24.5627 10.4727 23.3335 13.4517 23.3335 16.558V96.2019C23.3335 99.3082 24.5627 102.287 26.7506 104.484C28.9385 106.68 31.906 107.914 35.0002 107.914H72.3335C75.4277 107.914 78.3951 106.68 80.5831 104.484C82.771 102.287 84.0002 99.3082 84.0002 96.2019V16.558C84.0002 13.4517 82.771 10.4727 80.5831 8.27617C78.3951 6.07968 75.4277 4.8457 72.3335 4.8457ZM53.6668 103.229C49.7935 103.229 46.6668 100.09 46.6668 96.2019C46.6668 92.3134 49.7935 89.1745 53.6668 89.1745C57.5402 89.1745 60.6668 92.3134 60.6668 96.2019C60.6668 100.09 57.5402 103.229 53.6668 103.229ZM74.6668 84.4895H32.6668V18.9005H74.6668V84.4895Z" fill="#EC5F70" fill-opacity="0.9"/>
</g>
</svg>
