<svg width="40" height="40" viewBox="0 0 40 40" fill="none" xmlns="http://www.w3.org/2000/svg">
<path d="M15 18.3332V16.6665C15 13.8998 15.8333 11.6665 20 11.6665C24.1667 11.6665 25 13.8998 25 16.6665V18.3332M20 24.3332C20.1313 24.3332 20.2614 24.3073 20.3827 24.2571C20.504 24.2068 20.6142 24.1331 20.7071 24.0403C20.8 23.9474 20.8736 23.8372 20.9239 23.7159C20.9741 23.5945 21 23.4645 21 23.3332C21 23.2018 20.9741 23.0718 20.9239 22.9505C20.8736 22.8292 20.8 22.7189 20.7071 22.6261C20.6142 22.5332 20.504 22.4595 20.3827 22.4093C20.2614 22.359 20.1313 22.3332 20 22.3332C19.7348 22.3332 19.4804 22.4385 19.2929 22.6261C19.1054 22.8136 19 23.068 19 23.3332C19 23.5984 19.1054 23.8527 19.2929 24.0403C19.4804 24.2278 19.7348 24.3332 20 24.3332Z" stroke="white" stroke-width="1.5" stroke-linecap="round" stroke-linejoin="round"/>
<path d="M24.1641 28.3335H15.8307C12.4974 28.3335 11.6641 27.5002 11.6641 24.1668V22.5002C11.6641 19.1668 12.4974 18.3335 15.8307 18.3335H24.1641C27.4974 18.3335 28.3307 19.1668 28.3307 22.5002V24.1668C28.3307 27.5002 27.4974 28.3335 24.1641 28.3335Z" stroke="white" stroke-width="1.5" stroke-linecap="round" stroke-linejoin="round"/>
<path d="M20.0026 36.6668C29.2076 36.6668 36.6693 29.2052 36.6693 20.0002C36.6693 10.7952 29.2076 3.3335 20.0026 3.3335C10.7976 3.3335 3.33594 10.7952 3.33594 20.0002C3.33594 29.2052 10.7976 36.6668 20.0026 36.6668Z" stroke="white" stroke-width="1.5" stroke-linecap="round" stroke-linejoin="round"/>
</svg>
