<svg width="24" height="25" viewBox="0 0 24 25" fill="none" xmlns="http://www.w3.org/2000/svg">
<g id="uis:calender">
<path id="Vector" d="M2 19.3398C2 21.0398 3.3 22.3398 5 22.3398H19C20.7 22.3398 22 21.0398 22 19.3398V11.3398H2V19.3398ZM19 4.33984H17V3.33984C17 2.73984 16.6 2.33984 16 2.33984C15.4 2.33984 15 2.73984 15 3.33984V4.33984H9V3.33984C9 2.73984 8.6 2.33984 8 2.33984C7.4 2.33984 7 2.73984 7 3.33984V4.33984H5C3.3 4.33984 2 5.63984 2 7.33984V9.33984H22V7.33984C22 5.63984 20.7 4.33984 19 4.33984Z" fill="#6764FF"/>
</g>
</svg>
