<svg width="25" height="26" viewBox="0 0 25 26" fill="none" xmlns="http://www.w3.org/2000/svg">
<path id="Vector" d="M17.7463 0.544922H7.26612C2.71385 0.544922 0 3.25742 0 7.80742V18.2699C0 22.8324 2.71385 25.5449 7.26612 25.5449H17.7338C22.2861 25.5449 25 22.8324 25 18.2824V7.80742C25.0125 3.25742 22.2986 0.544922 17.7463 0.544922ZM17.5087 13.9824H13.4442V18.0449C13.4442 18.5574 13.019 18.9824 12.5062 18.9824C11.9935 18.9824 11.5683 18.5574 11.5683 18.0449V13.9824H7.50374C6.99098 13.9824 6.56577 13.5574 6.56577 13.0449C6.56577 12.5324 6.99098 12.1074 7.50374 12.1074H11.5683V8.04492C11.5683 7.53242 11.9935 7.10742 12.5062 7.10742C13.019 7.10742 13.4442 7.53242 13.4442 8.04492V12.1074H17.5087C18.0215 12.1074 18.4467 12.5324 18.4467 13.0449C18.4467 13.5574 18.0215 13.9824 17.5087 13.9824Z" fill="white"/>
</svg>
