<svg width="27" height="28" viewBox="0 0 27 28" fill="none" xmlns="http://www.w3.org/2000/svg">
<g id="&#240;&#159;&#166;&#134; icon &#34;profile add&#34;">
<g id="&#240;&#159;&#166;&#134; icon &#34;category&#34;">
<g id="Group">
<path id="Vector" d="M4.94876 12.0769H7.58126C10.2138 12.0769 11.53 10.7606 11.53 8.12814V5.49563C11.53 2.86313 10.2138 1.54688 7.58126 1.54688H4.94876C2.31625 1.54688 1 2.86313 1 5.49563V8.12814C1 10.7606 2.31625 12.0769 4.94876 12.0769Z" stroke="white" stroke-width="2" stroke-miterlimit="10" stroke-linecap="round" stroke-linejoin="round"/>
<path id="Vector_2" d="M19.4175 12.0769H22.05C24.6825 12.0769 25.9988 10.7606 25.9988 8.12814V5.49563C25.9988 2.86313 24.6825 1.54688 22.05 1.54688H19.4175C16.785 1.54688 15.4688 2.86313 15.4688 5.49563V8.12814C15.4688 10.7606 16.785 12.0769 19.4175 12.0769Z" stroke="white" stroke-width="2" stroke-miterlimit="10" stroke-linecap="round" stroke-linejoin="round"/>
<path id="Vector_3" d="M19.4175 26.5456H22.05C24.6825 26.5456 25.9988 25.2294 25.9988 22.5969V19.9644C25.9988 17.3319 24.6825 16.0156 22.05 16.0156H19.4175C16.785 16.0156 15.4688 17.3319 15.4688 19.9644V22.5969C15.4688 25.2294 16.785 26.5456 19.4175 26.5456Z" stroke="white" stroke-width="2" stroke-miterlimit="10" stroke-linecap="round" stroke-linejoin="round"/>
<path id="Vector_4" d="M4.94876 26.5456H7.58126C10.2138 26.5456 11.53 25.2294 11.53 22.5969V19.9644C11.53 17.3319 10.2138 16.0156 7.58126 16.0156H4.94876C2.31625 16.0156 1 17.3319 1 19.9644V22.5969C1 25.2294 2.31625 26.5456 4.94876 26.5456Z" stroke="white" stroke-width="2" stroke-miterlimit="10" stroke-linecap="round" stroke-linejoin="round"/>
</g>
</g>
</g>
</svg>
