<svg width="25" height="26" viewBox="0 0 25 26" fill="none" xmlns="http://www.w3.org/2000/svg">
<g id="Group">
<path id="Vector" d="M12.5048 20.5397C12.0281 20.5397 11.6328 20.1375 11.6328 19.6526V16.1039C11.6328 15.619 12.0281 15.2168 12.5048 15.2168C12.9815 15.2168 13.3767 15.619 13.3767 16.1039V19.6526C13.3767 20.1375 12.9815 20.5397 12.5048 20.5397Z" fill="white"/>
<path id="Vector_2" d="M19.0144 25.0469H5.99312C3.87715 25.0469 1.94721 23.3909 1.59842 21.2735L0.0521357 11.8461C-0.203641 10.3793 0.505557 8.4985 1.65655 7.56403L9.7135 0.999105C11.2714 -0.278394 13.7245 -0.266565 15.294 1.01093L23.351 7.56403C24.4903 8.4985 25.1879 10.3793 24.9554 11.8461L23.4091 21.2617C23.0603 23.3554 21.0839 25.0469 19.0144 25.0469ZM12.4921 1.82711C11.8759 1.82711 11.2597 2.01637 10.8063 2.38306L2.74941 8.95982C2.09835 9.49211 1.6333 10.7223 1.77281 11.5622L3.3191 20.9778C3.52837 22.2198 4.74912 23.2726 5.99312 23.2726H19.0144C20.2584 23.2726 21.4792 22.2198 21.6884 20.966L23.2347 11.5503C23.3626 10.7223 22.8976 9.46845 22.2581 8.94799L14.2012 2.39489C13.7361 2.01637 13.1083 1.82711 12.4921 1.82711Z" fill="white"/>
</g>
</svg>
