<svg width="30" height="31" viewBox="0 0 30 31" fill="none" xmlns="http://www.w3.org/2000/svg">
<g id="&#240;&#159;&#166;&#134; icon &#34;logout 1&#34;">
<g id="Group">
<path id="Vector" d="M24.4048 21.3247C24.0835 21.3247 23.7621 21.2047 23.5085 20.9475C23.018 20.4504 23.018 19.6275 23.5085 19.1304L26.9417 15.6504L23.5085 12.1704C23.018 11.6733 23.018 10.8505 23.5085 10.3533C23.9989 9.85618 24.8107 9.85618 25.3012 10.3533L29.6307 14.7418C30.1212 15.239 30.1212 16.0618 29.6307 16.559L25.3012 20.9475C25.0475 21.2047 24.7261 21.3247 24.4048 21.3247Z" fill="white"/>
<path id="Vector_2" d="M28.6167 16.9347H11.4169C10.7235 16.9347 10.1484 16.3519 10.1484 15.649C10.1484 14.9461 10.7235 14.3633 11.4169 14.3633H28.6167C29.3101 14.3633 29.8851 14.9461 29.8851 15.649C29.8851 16.3519 29.3101 16.9347 28.6167 16.9347Z" fill="white"/>
<path id="Vector_3" d="M14.7983 30.5469C6.08841 30.5469 0 24.3754 0 15.5469C0 6.7183 6.08841 0.546875 14.7983 0.546875C15.4917 0.546875 16.0667 1.12973 16.0667 1.83259C16.0667 2.53545 15.4917 3.1183 14.7983 3.1183C7.57669 3.1183 2.53684 8.22688 2.53684 15.5469C2.53684 22.8669 7.57669 27.9754 14.7983 27.9754C15.4917 27.9754 16.0667 28.5583 16.0667 29.2612C16.0667 29.964 15.4917 30.5469 14.7983 30.5469Z" fill="white"/>
</g>
</g>
</svg>
