<svg width="30" height="31" viewBox="0 0 30 31" fill="none" xmlns="http://www.w3.org/2000/svg">
<g id="&#240;&#159;&#166;&#134; icon &#34;profile circle&#34;">
<g id="Group">
<path id="Vector" d="M15.1674 17.6818C15.1395 17.6818 15.0976 17.6818 15.0697 17.6818C15.0279 17.6818 14.9721 17.6818 14.9302 17.6818C11.7627 17.5841 9.39062 15.1143 9.39062 12.0724C9.39062 8.97479 11.9162 6.44922 15.0139 6.44922C18.1116 6.44922 20.6372 8.97479 20.6372 12.0724C20.6232 15.1283 18.2372 17.5841 15.2093 17.6818C15.1814 17.6818 15.1814 17.6818 15.1674 17.6818ZM15 8.52828C13.0465 8.52828 11.4697 10.119 11.4697 12.0585C11.4697 13.9701 12.9628 15.519 14.8604 15.5887C14.9023 15.5748 15.0418 15.5748 15.1814 15.5887C17.0511 15.4911 18.5162 13.9562 18.5302 12.0585C18.5302 10.119 16.9535 8.52828 15 8.52828Z" fill="white"/>
<path id="Vector_2" d="M15.0022 30.5461C11.2487 30.5461 7.66269 29.1508 4.88595 26.6113C4.63478 26.388 4.52315 26.0531 4.55106 25.7322C4.73246 24.0717 5.76501 22.5229 7.48129 21.3787C11.6394 18.6159 18.379 18.6159 22.5231 21.3787C24.2394 22.5369 25.272 24.0717 25.4534 25.7322C25.4952 26.0671 25.3696 26.388 25.1185 26.6113C22.3417 29.1508 18.7557 30.5461 15.0022 30.5461ZM6.74176 25.4531C9.05804 27.3926 11.9743 28.4531 15.0022 28.4531C18.0301 28.4531 20.9464 27.3926 23.2627 25.4531C23.0115 24.602 22.3417 23.7787 21.351 23.1089C17.9185 20.8206 12.0999 20.8206 8.63943 23.1089C7.64874 23.7787 6.99292 24.602 6.74176 25.4531Z" fill="white"/>
<path id="Vector_3" d="M15 30.5467C6.72558 30.5467 0 23.8212 0 15.5468C0 7.27243 6.72558 0.546875 15 0.546875C23.2744 0.546875 30 7.27243 30 15.5468C30 23.8212 23.2744 30.5467 15 30.5467ZM15 2.63989C7.88372 2.63989 2.09302 8.43056 2.09302 15.5468C2.09302 22.6631 7.88372 28.4537 15 28.4537C22.1163 28.4537 27.907 22.6631 27.907 15.5468C27.907 8.43056 22.1163 2.63989 15 2.63989Z" fill="white"/>
</g>
</g>
</svg>
