<svg width="30" height="30" viewBox="0 0 30 30" fill="none" xmlns="http://www.w3.org/2000/svg">
<g clip-path="url(#clip0_13819_146378)">
<path d="M26.3925 19.7938C26.339 19.1606 26.0938 18.5589 25.6896 18.0687C25.2854 17.5784 24.7413 17.2231 24.13 17.05L17.4987 15.1562V13.7812C18.436 13.3162 19.225 12.599 19.7771 11.7102C20.3291 10.8214 20.6223 9.79628 20.6237 8.75C21.1392 8.67128 21.6094 8.41051 21.9492 8.01494C22.2889 7.61937 22.4757 7.11519 22.4757 6.59375C22.4757 6.07231 22.2889 5.56813 21.9492 5.17256C21.6094 4.77699 21.1392 4.51622 20.6237 4.4375V1.25H23.7487C23.9145 1.25 24.0735 1.18415 24.1907 1.06694C24.3079 0.949732 24.3738 0.79076 24.3738 0.625C24.3738 0.45924 24.3079 0.300269 24.1907 0.183058C24.0735 0.065848 23.9145 0 23.7487 0L6.24874 0C6.08298 0 5.92401 0.065848 5.8068 0.183058C5.68959 0.300269 5.62374 0.45924 5.62374 0.625C5.62374 0.79076 5.68959 0.949732 5.8068 1.06694C5.92401 1.18415 6.08298 1.25 6.24874 1.25H6.87374V3.125C6.87374 3.29076 6.93959 3.44973 7.0568 3.56694C7.17401 3.68415 7.33298 3.75 7.49874 3.75C7.6645 3.75 7.82347 3.68415 7.94068 3.56694C8.05789 3.44973 8.12374 3.29076 8.12374 3.125V1.25H9.37374V4.40625C8.83255 4.45659 8.32965 4.70717 7.96354 5.10891C7.59744 5.51064 7.39451 6.03459 7.39451 6.57812C7.39451 7.12166 7.59744 7.64561 7.96354 8.04734C8.32965 8.44908 8.83255 8.69966 9.37374 8.75C9.36934 9.80159 9.65981 10.8334 10.2122 11.7282C10.7646 12.623 11.5567 13.3451 12.4987 13.8125V15.1875L5.86124 17.0625C5.25107 17.2367 4.70838 17.5925 4.30535 18.0826C3.90231 18.5727 3.65803 19.1739 3.60499 19.8062C3.02374 26.7812 3.12374 25 3.12374 27.5C3.12374 28.163 3.38713 28.7989 3.85597 29.2678C4.32482 29.7366 4.9607 30 5.62374 30H24.3738C25.0368 30 25.6727 29.7366 26.1415 29.2678C26.6104 28.7989 26.8738 28.163 26.8738 27.5C26.8738 25 26.98 26.875 26.3925 19.7938ZM25.1425 19.8937L25.5675 25H22.8112C23.2237 19.2125 23.9988 20 16.9862 20C17.1987 18.7188 16.9862 19.5187 17.6425 19.375C18.0237 19.2875 17.9737 19.2125 19.155 16.9438L23.7863 18.2687C24.1497 18.3715 24.4736 18.5816 24.7156 18.8716C24.9576 19.1615 25.1064 19.5178 25.1425 19.8937ZM8.16749 21.25H21.83L21.2925 28.75H8.70499L8.16749 21.25ZM14.5862 18.0187C14.6703 18.0927 14.7726 18.1427 14.8825 18.1636C14.9924 18.1845 15.106 18.1755 15.2112 18.1375C15.48 18.025 15.18 17.8687 15.955 18.4312L15.7175 20H14.28L14.0175 18.4312L14.5862 18.0187ZM17.93 16.575L17.305 17.825L16.3237 17.1187L17.0862 16.3312L17.93 16.575ZM20.6237 7.44375V5.68125C20.8047 5.74694 20.9611 5.86676 21.0716 6.02443C21.1821 6.18209 21.2414 6.36996 21.2414 6.5625C21.2414 6.75504 21.1821 6.94291 21.0716 7.10057C20.9611 7.25824 20.8047 7.37806 20.6237 7.44375ZM19.3737 1.25V4.375H10.6237V1.25H19.3737ZM9.37374 5.68125V7.44375C9.19276 7.37806 9.03639 7.25824 8.92588 7.10057C8.81538 6.94291 8.75609 6.75504 8.75609 6.5625C8.75609 6.36996 8.81538 6.18209 8.92588 6.02443C9.03639 5.86676 9.19276 5.74694 9.37374 5.68125ZM10.6237 8.75V5.625H19.3737V8.75C19.3737 9.91032 18.9128 11.0231 18.0923 11.8436C17.2719 12.6641 16.1591 13.125 14.9987 13.125C13.8384 13.125 12.7256 12.6641 11.9052 11.8436C11.0847 11.0231 10.6237 9.91032 10.6237 8.75ZM16.2487 14.2313V15.3687L14.9987 16.6562L13.7487 15.3687V14.2313C14.5708 14.425 15.4267 14.425 16.2487 14.2313ZM12.9362 16.3312L13.6987 17.1187L12.7175 17.825L12.0925 16.575L12.9362 16.3312ZM4.85499 19.8937C4.88748 19.5145 5.03463 19.1541 5.27689 18.8605C5.51916 18.5669 5.84505 18.3539 6.21124 18.25L10.8425 16.925C12.03 19.2 11.9862 19.2687 12.355 19.3562C13.0112 19.5187 12.7987 18.7312 13.0112 19.9812C6.03624 19.9812 6.76124 19.1625 7.18624 24.9813H4.42999L4.85499 19.8937ZM4.37374 27.5V26.25H7.27374L7.45499 28.75H5.62374C5.29222 28.75 4.97428 28.6183 4.73986 28.3839C4.50544 28.1495 4.37374 27.8315 4.37374 27.5ZM25.6238 27.5C25.6238 27.8315 25.4921 28.1495 25.2576 28.3839C25.0232 28.6183 24.7053 28.75 24.3738 28.75H22.5425L22.7237 26.25H25.6238V27.5Z" fill="#FAFAFF"/>
</g>
<defs>
<clipPath id="clip0_13819_146378">
<rect width="30" height="30" fill="white"/>
</clipPath>
</defs>
</svg>
