<svg width="30" height="33" viewBox="0 0 30 33" fill="none" xmlns="http://www.w3.org/2000/svg">
<path d="M7.35156 14V11.5C7.35156 7.3625 8.43852 4 13.8733 4C19.3081 4 20.395 7.3625 20.395 11.5V14" stroke="#5E42BB" stroke-width="3" stroke-linecap="round" stroke-linejoin="round"/>
<path d="M19.3043 29H8.43478C4.08696 29 3 27.75 3 22.75V20.25C3 15.25 4.08696 14 8.43478 14H19.3043C23.6522 14 24.7391 15.25 24.7391 20.25V22.75C24.7391 27.75 23.6522 29 19.3043 29Z" stroke="#5E42BB" stroke-width="3" stroke-linecap="round" stroke-linejoin="round"/>
<path d="M14.0533 24.4141C15.5541 24.4141 16.7707 23.0149 16.7707 21.2891C16.7707 19.5632 15.5541 18.1641 14.0533 18.1641C12.5526 18.1641 11.3359 19.5632 11.3359 21.2891C11.3359 23.0149 12.5526 24.4141 14.0533 24.4141Z" stroke="#5E42BB" stroke-width="3" stroke-linecap="round" stroke-linejoin="round"/>
</svg>
