<svg width="35" height="35" viewBox="0 0 35 35" fill="none" xmlns="http://www.w3.org/2000/svg">
<path d="M12.2188 17.4979L15.7333 21.0271L22.7771 13.9688" stroke="white" stroke-width="1.5" stroke-linecap="round" stroke-linejoin="round"/>
<path d="M15.675 3.575C16.6812 2.71458 18.3292 2.71458 19.35 3.575L21.6542 5.55833C22.0917 5.9375 22.9083 6.24375 23.4917 6.24375H25.9708C27.5167 6.24375 28.7854 7.5125 28.7854 9.05833V11.5375C28.7854 12.1062 29.0917 12.9375 29.4708 13.375L31.4542 15.6792C32.3146 16.6854 32.3146 18.3333 31.4542 19.3542L29.4708 21.6583C29.0917 22.0958 28.7854 22.9125 28.7854 23.4958V25.975C28.7854 27.5208 27.5167 28.7896 25.9708 28.7896H23.4917C22.9229 28.7896 22.0917 29.0958 21.6542 29.475L19.35 31.4583C18.3437 32.3187 16.6958 32.3187 15.675 31.4583L13.3708 29.475C12.9333 29.0958 12.1167 28.7896 11.5333 28.7896H9.01042C7.46458 28.7896 6.19583 27.5208 6.19583 25.975V23.4812C6.19583 22.9125 5.88958 22.0958 5.525 21.6583L3.55625 19.3396C2.71042 18.3333 2.71042 16.7 3.55625 15.6938L5.525 13.375C5.88958 12.9375 6.19583 12.1208 6.19583 11.5521V9.04375C6.19583 7.49792 7.46458 6.22917 9.01042 6.22917H11.5333C12.1021 6.22917 12.9333 5.92292 13.3708 5.54375L15.675 3.575Z" stroke="white" stroke-width="1.5" stroke-linecap="round" stroke-linejoin="round"/>
</svg>
