<svg width="25" height="26" viewBox="0 0 25 26" fill="none" xmlns="http://www.w3.org/2000/svg">
<g id="Iconsax/Linear/bag">
<path id="Vector" d="M9.17708 2.63086L5.40625 6.41211M15.8229 2.63086L19.5937 6.41211" stroke="#F82083" stroke-opacity="0.5" stroke-width="1.5" stroke-miterlimit="10" stroke-linecap="round" stroke-linejoin="round"/>
<path id="Vector_2" d="M2.08594 8.72396C2.08594 6.79687 3.11719 6.64062 4.39844 6.64062H20.6068C21.888 6.64062 22.9193 6.79687 22.9193 8.72396C22.9193 10.9635 21.888 10.8073 20.6068 10.8073H4.39844C3.11719 10.8073 2.08594 10.9635 2.08594 8.72396Z" stroke="#F82083" stroke-opacity="0.5" stroke-width="1.5"/>
<path id="Vector_3" d="M10.1693 15.1296V18.8275M14.9609 15.1296V18.8275M3.64844 10.9629L5.11719 19.9629C5.45052 21.9837 6.2526 23.4629 9.23177 23.4629H15.513C18.7526 23.4629 19.2318 22.0462 19.6068 20.0879L21.3568 10.9629" stroke="#F82083" stroke-opacity="0.5" stroke-width="1.5" stroke-linecap="round"/>
</g>
</svg>
