<svg width="61" height="60" viewBox="0 0 61 60" fill="none" xmlns="http://www.w3.org/2000/svg">
<ellipse cx="30.5" cy="30" rx="30.5" ry="30" fill="#6764FF" fill-opacity="0.5"/>
<path d="M38.6047 45C37.0279 45 35.3674 44.6233 33.6512 43.8977C31.9767 43.186 30.2884 42.2093 28.6419 41.0233C27.0093 39.8233 25.4326 38.4837 23.9395 37.0186C22.4605 35.5256 21.1209 33.9488 19.9349 32.3302C18.7349 30.6558 17.7721 28.9814 17.0884 27.3628C16.3628 25.6326 16 23.9581 16 22.3814C16 21.293 16.1953 20.2605 16.5721 19.2977C16.9628 18.307 17.5907 17.386 18.4419 16.5907C19.5163 15.5302 20.7442 15 22.0558 15C22.6 15 23.1581 15.1256 23.6326 15.3488C24.1767 15.6 24.6372 15.9767 24.9721 16.4791L28.2093 21.0419C28.5023 21.4465 28.7256 21.8372 28.8791 22.2279C29.0605 22.6465 29.1581 23.0651 29.1581 23.4698C29.1581 24 29.0047 24.5163 28.7116 25.0047C28.5023 25.3814 28.1814 25.786 27.7767 26.1907L26.8279 27.1814C26.8419 27.2233 26.8558 27.2512 26.8698 27.2791C27.0372 27.5721 27.3721 28.0744 28.014 28.8279C28.6977 29.6093 29.3395 30.3209 29.9814 30.9767C30.8047 31.786 31.4884 32.4279 32.1302 32.9581C32.9256 33.6279 33.4419 33.9628 33.7488 34.1163L33.7209 34.186L34.7395 33.1814C35.1721 32.7488 35.5907 32.4279 35.9953 32.2186C36.7628 31.7442 37.7395 31.6605 38.7163 32.0651C39.0791 32.2186 39.4698 32.4279 39.8884 32.7209L44.5209 36.014C45.0372 36.3628 45.414 36.8093 45.6372 37.3395C45.8465 37.8698 45.9442 38.3581 45.9442 38.8465C45.9442 39.5163 45.7907 40.186 45.4977 40.814C45.2046 41.4419 44.8419 41.986 44.3814 42.4884C43.586 43.3674 42.7209 43.9953 41.7163 44.4C40.7535 44.7907 39.707 45 38.6047 45ZM22.0558 17.093C21.2884 17.093 20.5767 17.4279 19.893 18.0977C19.2512 18.6977 18.8047 19.3535 18.5256 20.0651C18.2326 20.7907 18.093 21.5581 18.093 22.3814C18.093 23.6791 18.4 25.0884 19.014 26.5395C19.6419 28.0186 20.5209 29.5535 21.6372 31.0884C22.7535 32.6233 24.0233 34.1163 25.4186 35.5256C26.814 36.907 28.3209 38.1907 29.8698 39.3209C31.3767 40.4233 32.9256 41.3163 34.4605 41.9581C36.8465 42.9767 39.0791 43.214 40.9209 42.4465C41.6326 42.1535 42.2605 41.707 42.8326 41.0651C43.1535 40.7163 43.4047 40.3395 43.614 39.893C43.7814 39.5442 43.8651 39.1814 43.8651 38.8186C43.8651 38.5953 43.8233 38.3721 43.7116 38.1209C43.6698 38.0372 43.586 37.8837 43.3209 37.7023L38.6884 34.4093C38.4093 34.214 38.1581 34.0744 37.9209 33.9767C37.614 33.8512 37.4884 33.7256 37.014 34.0186C36.7349 34.1581 36.4837 34.3674 36.2046 34.6465L35.1442 35.693C34.6 36.2233 33.7628 36.3488 33.1209 36.1116L32.7442 35.9442C32.1721 35.6372 31.5023 35.1628 30.7628 34.5349C30.093 33.9628 29.3674 33.293 28.4884 32.4279C27.8047 31.7302 27.1209 30.9907 26.4093 30.1674C25.7535 29.4 25.2791 28.7442 24.986 28.2L24.8186 27.7814C24.7349 27.4605 24.707 27.2791 24.707 27.0837C24.707 26.5814 24.8884 26.1349 25.2372 25.786L26.2837 24.6977C26.5628 24.4186 26.7721 24.1535 26.9116 23.9163C27.0233 23.7349 27.0651 23.5814 27.0651 23.4419C27.0651 23.3302 27.0233 23.1628 26.9535 22.9953C26.8558 22.7721 26.7023 22.5209 26.507 22.2558L23.2698 17.6791C23.1302 17.4837 22.9628 17.3442 22.7535 17.2465C22.5302 17.1488 22.293 17.093 22.0558 17.093ZM33.7209 34.2L33.4977 35.1488L33.8744 34.1721C33.8047 34.1581 33.7488 34.1721 33.7209 34.2Z" fill="white"/>
</svg>
