<svg width="61" height="60" viewBox="0 0 61 60" fill="none" xmlns="http://www.w3.org/2000/svg">
<ellipse cx="30.5" cy="30" rx="30.5" ry="30" fill="#6764FF" fill-opacity="0.5"/>
<path d="M31.0312 15V25.5001L34.0313 22.5" stroke="white" stroke-width="2" stroke-linecap="round" stroke-linejoin="round"/>
<path d="M31.0313 25.5L28.0312 22.5" stroke="white" stroke-width="2" stroke-linecap="round" stroke-linejoin="round"/>
<path d="M16 31.5H22.615C23.185 31.5 23.695 31.815 23.95 32.325L25.705 35.835C26.2151 36.855 27.2501 37.5 28.3901 37.5H33.6851C34.8251 37.5 35.8601 36.855 36.3701 35.835L38.1252 32.325C38.3802 31.815 38.9052 31.5 39.4602 31.5H46.0002" stroke="white" stroke-width="2" stroke-linecap="round" stroke-linejoin="round"/>
<path d="M17.0625 40.5005C18.5025 43.6505 21.5025 45.0005 26.5275 45.0005H35.5277C43.0277 45.0005 46.0277 42.0005 46.0277 34.5004V28.5004C46.0277 22.0953 43.8377 18.9753 38.5277 18.1953" stroke="white" stroke-width="2" stroke-linecap="round" stroke-linejoin="round"/>
<path d="M23.5313 18.1953C18.2213 18.9753 16.0312 22.0953 16.0312 28.5004V34.5004" stroke="white" stroke-width="2" stroke-linecap="round" stroke-linejoin="round"/>
</svg>
