<svg width="29" height="22" viewBox="0 0 29 22" fill="none" xmlns="http://www.w3.org/2000/svg">
<path d="M18.7276 2.4442L20.5558 5.99334C20.8022 6.48418 21.4635 6.94985 22.0211 7.05054L25.3278 7.57913C27.4414 7.91895 27.9342 9.40407 26.417 10.8892L23.8365 13.3937C23.4085 13.809 23.1623 14.6271 23.3049 15.2186L24.0439 18.3147C24.6274 20.7563 23.279 21.7128 21.0616 20.4291L17.9624 18.6419C17.4048 18.3147 16.4713 18.3147 15.9137 18.6419L12.8145 20.4291C10.5972 21.7002 9.24861 20.7563 9.83213 18.3147L10.5713 15.2186C10.7139 14.6397 10.4675 13.8216 10.0396 13.3937L7.45917 10.8892C5.94203 9.41665 6.43478 7.93153 8.5484 7.57913L11.8549 7.05054C12.4125 6.96244 13.074 6.48418 13.3203 5.99334L15.1487 2.4442C16.1212 0.518599 17.7291 0.518599 18.7276 2.4442Z" stroke="#6764FF" stroke-opacity="0.5" stroke-width="2" stroke-linecap="round" stroke-linejoin="round"/>
<path d="M9.14741 2.17969H1.36719" stroke="#6764FF" stroke-opacity="0.5" stroke-width="2" stroke-linecap="round" stroke-linejoin="round"/>
<path d="M5.2573 19.8008H1.36719" stroke="#6764FF" stroke-opacity="0.5" stroke-width="2" stroke-linecap="round" stroke-linejoin="round"/>
<path d="M2.66389 10.9883H1.36719" stroke="#6764FF" stroke-opacity="0.5" stroke-width="2" stroke-linecap="round" stroke-linejoin="round"/>
</svg>
