<svg width="21" height="20" viewBox="0 0 21 20" fill="none" xmlns="http://www.w3.org/2000/svg">
<path d="M3.52124 8.57141H5.62394C7.72664 8.57141 8.77799 7.49998 8.77799 5.35713V3.21428C8.77799 1.07143 7.72664 0 5.62394 0H3.52124C1.41854 0 0.367188 1.07143 0.367188 3.21428V5.35713C0.367188 7.49998 1.41854 8.57141 3.52124 8.57141Z" fill="#6764FF" fill-opacity="0.6"/>
<path d="M15.1072 8.57141H17.2099C19.3126 8.57141 20.3639 7.49998 20.3639 5.35713V3.21428C20.3639 1.07143 19.3126 0 17.2099 0H15.1072C13.0045 0 11.9531 1.07143 11.9531 3.21428V5.35713C11.9531 7.49998 13.0045 8.57141 15.1072 8.57141Z" fill="#6764FF" fill-opacity="0.6"/>
<path d="M15.1072 20.0011H17.2099C19.3126 20.0011 20.3639 18.9297 20.3639 16.7868V14.644C20.3639 12.5011 19.3126 11.4297 17.2099 11.4297H15.1072C13.0045 11.4297 11.9531 12.5011 11.9531 14.644V16.7868C11.9531 18.9297 13.0045 20.0011 15.1072 20.0011Z" fill="#6764FF" fill-opacity="0.6"/>
<path d="M3.52124 20.0011H5.62394C7.72664 20.0011 8.77799 18.9297 8.77799 16.7868V14.644C8.77799 12.5011 7.72664 11.4297 5.62394 11.4297H3.52124C1.41854 11.4297 0.367188 12.5011 0.367188 14.644V16.7868C0.367188 18.9297 1.41854 20.0011 3.52124 20.0011Z" fill="#6764FF" fill-opacity="0.6"/>
</svg>
