<svg width="23" height="21" viewBox="0 0 23 21" fill="none" xmlns="http://www.w3.org/2000/svg">
<path d="M12.2968 9.30859H6.29688" stroke="#6764FF" stroke-opacity="0.5" stroke-width="2" stroke-linecap="round" stroke-linejoin="round"/>
<path d="M1.29688 9.30992V4.68996C1.29688 2.64998 2.94686 1 4.98683 1H10.6068C12.6467 1 14.2967 2.26999 14.2967 4.30996" stroke="#6764FF" stroke-opacity="0.5" stroke-width="2" stroke-linecap="round" stroke-linejoin="round"/>
<path d="M16.7767 10.3585C16.2767 10.8385 16.0367 11.5785 16.2367 12.3385C16.4867 13.2685 17.4067 13.8585 18.3667 13.8585H19.2967V15.3085C19.2967 17.5184 17.5067 19.3084 15.2967 19.3084H5.29683C3.08686 19.3084 1.29688 17.5184 1.29688 15.3085V8.30855C1.29688 6.09857 3.08686 4.30859 5.29683 4.30859H15.2967C17.4967 4.30859 19.2967 6.10857 19.2967 8.30855V9.75853H18.2167C17.6567 9.75853 17.1467 9.97853 16.7767 10.3585Z" stroke="#6764FF" stroke-opacity="0.5" stroke-width="2" stroke-linecap="round" stroke-linejoin="round"/>
<path d="M21.3009 10.7817V12.8417C21.3009 13.4017 20.8409 13.8617 20.2709 13.8617H18.3409C17.2609 13.8617 16.271 13.0717 16.181 11.9917C16.121 11.3617 16.3609 10.7717 16.7809 10.3617C17.1509 9.98172 17.661 9.76172 18.221 9.76172H20.2709C20.8409 9.76172 21.3009 10.2217 21.3009 10.7817Z" stroke="#6764FF" stroke-opacity="0.5" stroke-width="2" stroke-linecap="round" stroke-linejoin="round"/>
</svg>
