<svg width="30" height="30" viewBox="0 0 30 30" fill="none" xmlns="http://www.w3.org/2000/svg">
<g id="&#240;&#159;&#166;&#134; icon &#34;logout 1&#34;">
<g id="Group">
<path id="Vector" d="M24.4048 20.7768C24.0835 20.7768 23.7621 20.6568 23.5085 20.3997C23.018 19.9025 23.018 19.0797 23.5085 18.5825L26.9417 15.1025L23.5085 11.6225C23.018 11.1255 23.018 10.3026 23.5085 9.80547C23.9989 9.30833 24.8107 9.30833 25.3012 9.80547L29.6307 14.194C30.1212 14.6911 30.1212 15.514 29.6307 16.0111L25.3012 20.3997C25.0475 20.6568 24.7261 20.7768 24.4048 20.7768Z" fill="#1D35FB"/>
<path id="Vector_2" d="M28.6167 16.3888H11.4169C10.7235 16.3888 10.1484 15.806 10.1484 15.1031C10.1484 14.4002 10.7235 13.8174 11.4169 13.8174H28.6167C29.3101 13.8174 29.8851 14.4002 29.8851 15.1031C29.8851 15.806 29.3101 16.3888 28.6167 16.3888Z" fill="#1D35FB"/>
<path id="Vector_3" d="M14.7983 30C6.08841 30 0 23.8286 0 15C0 6.17143 6.08841 0 14.7983 0C15.4917 0 16.0667 0.582857 16.0667 1.28571C16.0667 1.98857 15.4917 2.57143 14.7983 2.57143C7.57669 2.57143 2.53684 7.68 2.53684 15C2.53684 22.32 7.57669 27.4286 14.7983 27.4286C15.4917 27.4286 16.0667 28.0114 16.0667 28.7143C16.0667 29.4171 15.4917 30 14.7983 30Z" fill="#1D35FB"/>
</g>
</g>
</svg>
