<svg width="340" height="300" viewBox="0 0 340 300" fill="none" xmlns="http://www.w3.org/2000/svg">
<path d="M169.553 299.958C252.335 299.958 319.442 232.81 319.442 149.979C319.442 67.148 252.335 0 169.553 0C86.7717 0 19.6641 67.148 19.6641 149.979C19.6641 232.81 86.7717 299.958 169.553 299.958Z" fill="white"/>
<path opacity="0.1" d="M169.553 299.958C252.335 299.958 319.442 232.81 319.442 149.979C319.442 67.148 252.335 0 169.553 0C86.7717 0 19.6641 67.148 19.6641 149.979C19.6641 232.81 86.7717 299.958 169.553 299.958Z" fill="#6764FF"/>
<path d="M72.1349 200.92L0.453125 200.703L0.748059 103.266L50.3143 103.416L72.3627 125.612L72.1349 200.92Z" fill="white"/>
<path opacity="0.3" d="M50.3171 103.416L50.25 125.545L72.3655 125.612L50.3171 103.416Z" fill="#6764FF"/>
<path d="M72.8172 125.584C72.8145 125.544 72.8067 125.505 72.7939 125.467C72.7889 125.452 72.7853 125.438 72.7789 125.423C72.7576 125.374 72.7274 125.328 72.6898 125.29L50.6415 103.094C50.6027 103.055 50.5574 103.025 50.5077 103.002C50.4938 102.996 50.4797 102.991 50.4652 102.987C50.427 102.973 50.387 102.965 50.3465 102.963C50.3369 102.963 50.3283 102.957 50.3187 102.957L0.752858 102.809C0.631772 102.809 0.515646 102.857 0.430025 102.942C0.344405 103.028 0.296304 103.144 0.296304 103.265L0 200.701C0 200.822 0.0481011 200.938 0.133722 201.024C0.219342 201.11 0.335469 201.158 0.456554 201.158L72.1356 201.377C72.2567 201.377 72.3728 201.329 72.4584 201.243C72.544 201.157 72.5921 201.041 72.5921 200.92L72.8204 125.612C72.8227 125.603 72.8177 125.594 72.8172 125.584ZM50.7688 104.52L60.95 114.766L71.2654 125.15L50.7086 125.088L50.7688 104.52ZM0.913109 200.247L1.2053 103.724L49.858 103.871L49.7927 125.543C49.7927 125.664 49.8408 125.781 49.9265 125.866C50.0121 125.952 50.1282 126 50.2493 126L71.9082 126.066L71.6831 200.46L0.913109 200.247Z" fill="#262626"/>
<path d="M218.273 197.021L120.523 196.725L120.926 63.8535L188.517 64.0586L218.584 94.3263L218.273 197.021Z" fill="white"/>
<path opacity="0.3" d="M188.521 64.0586L188.43 94.2349L218.588 94.3263L188.521 64.0586Z" fill="#6764FF"/>
<path d="M219.037 94.298C219.035 94.2582 219.027 94.2188 219.014 94.181C219.009 94.1659 219.005 94.1518 218.999 94.1353C218.977 94.0858 218.947 94.0405 218.91 94.0015L188.843 63.7338C188.805 63.6956 188.759 63.6647 188.71 63.6425C188.695 63.6361 188.682 63.6324 188.667 63.6274C188.629 63.6141 188.589 63.606 188.548 63.6032C188.539 63.6032 188.53 63.5977 188.521 63.5977L120.929 63.3926C120.808 63.3926 120.692 63.4407 120.606 63.5264C120.521 63.6121 120.473 63.7282 120.473 63.8494L120.07 196.721C120.07 196.842 120.118 196.958 120.204 197.044C120.29 197.13 120.406 197.178 120.527 197.178L218.275 197.474C218.396 197.474 218.512 197.426 218.598 197.34C218.684 197.255 218.732 197.138 218.732 197.017L219.043 94.3222C219.043 94.3167 219.038 94.308 219.037 94.298ZM188.972 65.1619L217.484 93.8654L188.885 93.7786L188.972 65.1619ZM120.983 196.269L121.383 64.3108L188.061 64.5132L187.97 94.2326C187.97 94.3538 188.018 94.47 188.104 94.5557C188.189 94.6413 188.305 94.6895 188.427 94.6895L218.128 94.7808L217.82 196.562L120.983 196.269Z" fill="#262626"/>
<path d="M338.416 200.92L266.734 200.703L267.029 103.266L316.596 103.416L338.644 125.612L338.416 200.92Z" fill="white"/>
<path opacity="0.3" d="M316.598 103.416L316.531 125.545L338.647 125.612L316.598 103.416Z" fill="#6764FF"/>
<path d="M339.097 125.584C339.095 125.544 339.087 125.505 339.074 125.467C339.069 125.452 339.065 125.438 339.059 125.423C339.037 125.374 339.007 125.328 338.97 125.289L316.921 103.094C316.883 103.055 316.838 103.024 316.788 103.002C316.774 102.996 316.76 102.992 316.745 102.987C316.707 102.973 316.667 102.965 316.627 102.963C316.617 102.963 316.609 102.957 316.599 102.957L267.033 102.807C266.912 102.807 266.796 102.855 266.71 102.94C266.624 103.026 266.576 103.142 266.576 103.263L266.281 200.701C266.281 200.822 266.329 200.938 266.415 201.024C266.501 201.109 266.617 201.157 266.738 201.157L338.42 201.375C338.541 201.375 338.657 201.327 338.742 201.241C338.828 201.155 338.876 201.039 338.876 200.918L339.104 125.61C339.103 125.603 339.098 125.594 339.097 125.584ZM317.051 104.52L327.228 114.766L337.545 125.15L316.988 125.088L317.051 104.52ZM267.195 200.247L267.487 103.723L316.14 103.871L316.074 125.543C316.074 125.664 316.123 125.78 316.208 125.866C316.294 125.952 316.41 126 316.531 126L338.19 126.066L337.965 200.46L267.195 200.247Z" fill="#262626"/>
<path d="M145.14 141.284C148.919 141.284 151.983 138.218 151.983 134.437C151.983 130.655 148.919 127.59 145.14 127.59C141.361 127.59 138.297 130.655 138.297 134.437C138.297 138.218 141.361 141.284 145.14 141.284Z" fill="#292A2E"/>
<path d="M192.062 141.284C195.841 141.284 198.904 138.218 198.904 134.437C198.904 130.655 195.841 127.59 192.062 127.59C188.282 127.59 185.219 130.655 185.219 134.437C185.219 138.218 188.282 141.284 192.062 141.284Z" fill="#292A2E"/>
<path d="M177.773 153.373H159.425C159.304 153.373 159.188 153.325 159.102 153.239C159.017 153.153 158.969 153.037 158.969 152.916C158.969 152.795 159.017 152.678 159.102 152.593C159.188 152.507 159.304 152.459 159.425 152.459H177.773C177.894 152.459 178.011 152.507 178.096 152.593C178.182 152.678 178.23 152.795 178.23 152.916C178.23 153.037 178.182 153.153 178.096 153.239C178.011 153.325 177.894 153.373 177.773 153.373Z" fill="#262626"/>
<path d="M138.081 154.023C141.452 154.023 144.185 152.584 144.185 150.808C144.185 149.033 141.452 147.594 138.081 147.594C134.709 147.594 131.977 149.033 131.977 150.808C131.977 152.584 134.709 154.023 138.081 154.023Z" fill="white"/>
<path d="M199.12 154.023C202.491 154.023 205.224 152.584 205.224 150.808C205.224 149.033 202.491 147.594 199.12 147.594C195.749 147.594 193.016 149.033 193.016 150.808C193.016 152.584 195.749 154.023 199.12 154.023Z" fill="white"/>
<g opacity="0.4">
<path d="M138.081 154.023C141.452 154.023 144.185 152.584 144.185 150.808C144.185 149.033 141.452 147.594 138.081 147.594C134.709 147.594 131.977 149.033 131.977 150.808C131.977 152.584 134.709 154.023 138.081 154.023Z" fill="#6764FF"/>
<path d="M199.12 154.023C202.491 154.023 205.224 152.584 205.224 150.808C205.224 149.033 202.491 147.594 199.12 147.594C195.749 147.594 193.016 149.033 193.016 150.808C193.016 152.584 195.749 154.023 199.12 154.023Z" fill="#6764FF"/>
</g>
<path d="M218.731 95.4138C207.08 82.0284 190.591 73.8222 172.893 72.6003C155.195 71.3784 137.737 77.2408 124.359 88.898C102.008 108.376 95.1392 140.759 107.659 167.655C110.173 173.045 113.397 178.073 117.244 182.607L118.066 183.582L56.7996 248.639C55.6792 249.846 55.0813 251.448 55.1363 253.094C55.1912 254.741 55.8946 256.299 57.0929 257.428C58.2913 258.558 59.8874 259.168 61.5332 259.125C63.1791 259.081 64.7411 258.389 65.8786 257.198L127.13 192.15L128.153 192.917C141.37 202.837 157.79 207.512 174.247 206.04C190.705 204.567 206.035 197.053 217.285 184.943C228.534 172.834 234.907 156.987 235.174 140.457C235.441 123.926 229.585 107.881 218.733 95.4138H218.731ZM222.572 143.119C221.624 156.864 215.504 169.738 205.445 179.147C195.387 188.556 182.138 193.8 168.369 193.822C167.097 193.822 165.822 193.777 164.542 193.685C155.604 193.078 146.954 190.274 139.359 185.52C131.764 180.767 125.459 174.212 121.002 166.436C116.545 158.66 114.075 149.904 113.811 140.944C113.546 131.985 115.495 123.098 119.485 115.072C123.475 107.047 129.383 100.13 136.684 94.9367C143.986 89.743 152.455 86.4323 161.341 85.2982C170.228 84.1641 179.256 85.2418 187.627 88.4355C195.997 91.6293 203.451 96.8405 209.326 103.607C214.033 108.991 217.627 115.255 219.901 122.037C222.175 128.819 223.082 135.984 222.572 143.119Z" fill="#6764FF"/>
</svg>
