<svg width="61" height="60" viewBox="0 0 61 60" fill="none" xmlns="http://www.w3.org/2000/svg">
<ellipse cx="30.5" cy="30" rx="30.5" ry="30" fill="#6764FF" fill-opacity="0.5"/>
<path d="M31 15C39.28 15 46 21.72 46 30C46 38.28 39.28 45 31 45C28.24 45 25.645 44.25 23.41 42.945L16 45L18.01 37.5C16.735 35.295 16 32.73 16 30C16 24.45 19.015 19.605 23.5 17.01" stroke="white" stroke-width="2" stroke-miterlimit="10" stroke-linecap="round" stroke-linejoin="round"/>
<path d="M38.5 34.7538C38.5 35.0238 38.44 35.3088 38.305 35.5788C38.17 35.8488 38.005 36.1038 37.795 36.3438C37.42 36.7488 37.015 37.0488 36.565 37.2288C36.115 37.4238 35.62 37.5138 35.095 37.5138C34.33 37.5138 33.505 37.3338 32.65 36.9588C31.78 36.5838 30.925 36.0888 30.07 35.4738C29.2 34.8438 28.39 34.1388 27.61 33.3738C26.83 32.5938 26.14 31.7688 25.51 30.9138C24.895 30.0588 24.4 29.2038 24.04 28.3488C23.68 27.4938 23.5 26.6688 23.5 25.8888C23.5 25.3788 23.59 24.8838 23.77 24.4338C23.95 23.9688 24.235 23.5487 24.64 23.1737C25.12 22.6937 25.645 22.4688 26.2 22.4688C26.41 22.4688 26.62 22.5138 26.815 22.6038C27.01 22.6938 27.19 22.8287 27.325 23.0237L29.065 25.4837C29.2 25.6787 29.305 25.8437 29.365 26.0087C29.44 26.1737 29.47 26.3237 29.47 26.4737C29.47 26.6537 29.41 26.8338 29.305 27.0138C29.2 27.1938 29.065 27.3738 28.885 27.5538L28.315 28.1538C28.225 28.2438 28.195 28.3338 28.195 28.4538C28.195 28.5138 28.21 28.5738 28.225 28.6338C28.255 28.6938 28.27 28.7388 28.285 28.7838C28.42 29.0388 28.66 29.3538 28.99 29.7438C29.335 30.1338 29.695 30.5388 30.085 30.9288C30.49 31.3338 30.88 31.6938 31.285 32.0388C31.675 32.3688 32.005 32.5938 32.26 32.7288C32.305 32.7438 32.35 32.7738 32.395 32.7888C32.455 32.8188 32.515 32.8188 32.59 32.8188C32.725 32.8188 32.815 32.7738 32.905 32.6838L33.475 32.1138C33.67 31.9188 33.85 31.7838 34.015 31.6938C34.195 31.5888 34.36 31.5288 34.555 31.5288C34.705 31.5288 34.855 31.5588 35.02 31.6338C35.185 31.7088 35.365 31.7988 35.545 31.9338L38.035 33.7038C38.23 33.8388 38.365 34.0038 38.455 34.1838C38.455 34.3638 38.5 34.5438 38.5 34.7538Z" stroke="white" stroke-width="2" stroke-miterlimit="10"/>
</svg>
