<svg width="64" height="68" viewBox="0 0 64 68" fill="none" xmlns="http://www.w3.org/2000/svg">
<mask id="mask0_1_925" style="mask-type:luminance" maskUnits="userSpaceOnUse" x="0" y="0" width="64" height="68">
<path d="M0 0.261719H63.9349V67.5577H0V0.261719Z" fill="white"/>
</mask>
<g mask="url(#mask0_1_925)">
<path fill-rule="evenodd" clip-rule="evenodd" d="M63.9349 0.261719H0V67.5577H63.9349V0.261719ZM26.6395 5.86972C25.5797 5.86972 24.5634 6.31285 23.814 7.10163C23.0646 7.89041 22.6436 8.96022 22.6436 10.0757H18.6477C17.5879 10.0757 16.5715 10.5189 15.8221 11.3076C15.0727 12.0964 14.6517 13.1662 14.6517 14.2817V53.5377C14.6517 54.6532 15.0727 55.723 15.8221 56.5118C16.5715 57.3006 17.5879 57.7437 18.6477 57.7437H34.6314V54.9397H18.6477C18.2944 54.9397 17.9556 54.792 17.7058 54.5291C17.456 54.2662 17.3157 53.9096 17.3157 53.5377V14.2817C17.3157 13.9099 17.456 13.5533 17.7058 13.2904C17.9556 13.0274 18.2944 12.8797 18.6477 12.8797H22.6436C22.6436 13.9952 23.0646 15.065 23.814 15.8538C24.5634 16.6426 25.5797 17.0857 26.6395 17.0857H37.2953C38.3551 17.0857 39.3715 16.6426 40.1209 15.8538C40.8703 15.065 41.2913 13.9952 41.2913 12.8797H45.2872C45.6405 12.8797 45.9793 13.0274 46.2291 13.2904C46.4788 13.5533 46.6192 13.9099 46.6192 14.2817V35.3117H49.2831V14.2817C49.2831 13.1662 48.8621 12.0964 48.1127 11.3076C47.3634 10.5189 46.347 10.0757 45.2872 10.0757H41.2913C41.2913 8.96022 40.8703 7.89041 40.1209 7.10163C39.3715 6.31285 38.3551 5.86972 37.2953 5.86972H26.6395ZM25.3076 10.0757C25.3076 9.70389 25.4479 9.34728 25.6977 9.08436C25.9475 8.82143 26.2863 8.67372 26.6395 8.67372H37.2953C37.6486 8.67372 37.9874 8.82143 38.2372 9.08436C38.487 9.34728 38.6273 9.70389 38.6273 10.0757V12.8797C38.6273 13.2516 38.487 13.6082 38.2372 13.8711C37.9874 14.134 37.6486 14.2817 37.2953 14.2817H26.6395C26.2863 14.2817 25.9475 14.134 25.6977 13.8711C25.4479 13.6082 25.3076 13.2516 25.3076 12.8797V10.0757ZM30.6355 26.8997V22.6937H33.2994V26.8997H37.2953V29.7037H33.2994V33.9097H30.6355V29.7037H26.6395V26.8997H30.6355ZM35.9634 39.5177C35.9634 39.1459 36.1037 38.7893 36.3535 38.5264C36.6033 38.2634 36.9421 38.1157 37.2953 38.1157H53.2791C53.6323 38.1157 53.9711 38.2634 54.2209 38.5264C54.4707 38.7893 54.611 39.1459 54.611 39.5177V49.0359C54.611 50.6515 54.232 52.242 53.5077 53.6664C52.7835 55.0908 51.7363 56.305 50.4593 57.2012L46.0264 60.3136C45.8076 60.4673 45.5503 60.5493 45.2872 60.5493C45.0241 60.5493 44.7668 60.4673 44.548 60.3136L40.1151 57.2012C38.8382 56.3051 37.7912 55.0912 37.067 53.667C36.3427 52.2429 35.9636 50.6526 35.9634 49.0373V39.5177ZM44.8969 51.7249L50.2248 46.1169L48.3414 44.1345L43.9552 48.7513L42.233 46.9385L40.3496 48.9209L43.0135 51.7249C43.2633 51.9878 43.602 52.1354 43.9552 52.1354C44.3084 52.1354 44.6472 51.9878 44.8969 51.7249Z" fill="#D04E62"/>
</g>
</svg>
