<svg width="13" height="14" viewBox="0 0 13 14" fill="none" xmlns="http://www.w3.org/2000/svg">
<path id="Line 245" d="M0.619609 11.589C0.297695 11.9307 0.313722 12.4686 0.655405 12.7905C0.997088 13.1125 1.53504 13.0964 1.85695 12.7548L0.619609 11.589ZM12.614 0.974076C12.6 0.504841 12.2083 0.135784 11.739 0.149764L4.09243 0.377565C3.62319 0.391544 3.25414 0.783265 3.26811 1.2525C3.28209 1.72173 3.67381 2.09079 4.14305 2.07681L10.94 1.87432L11.1425 8.67131C11.1565 9.14054 11.5482 9.5096 12.0175 9.49562C12.4867 9.48164 12.8557 9.08992 12.8418 8.62068L12.614 0.974076ZM1.85695 12.7548L12.383 1.58226L11.1457 0.41651L0.619609 11.589L1.85695 12.7548Z" fill="#EC3737"/>
</svg>
