<svg width="18" height="16" viewBox="0 0 18 16" fill="none" xmlns="http://www.w3.org/2000/svg">
<path d="M15.9233 14.9702L10.3398 10.1702C9.84132 10.513 9.26802 10.7845 8.61994 10.9845C7.97187 11.1845 7.28224 11.2845 6.55108 11.2845C4.73979 11.2845 3.207 10.745 1.95273 9.66617C0.698449 8.58732 0.0709772 7.2696 0.0703125 5.71303C0.0703125 4.15589 0.697784 2.83817 1.95273 1.75989C3.20767 0.681602 4.74045 0.142173 6.55108 0.141602C8.36237 0.141602 9.89516 0.68103 11.1494 1.75989C12.4037 2.83874 13.0312 4.15646 13.0318 5.71303C13.0318 6.3416 12.9155 6.93446 12.6829 7.4916C12.4502 8.04874 12.1345 8.5416 11.7357 8.97017L17.3441 13.7916C17.5268 13.9487 17.6182 14.1416 17.6182 14.3702C17.6182 14.5987 17.5185 14.7987 17.3191 14.9702C17.1363 15.1273 16.9037 15.2059 16.6212 15.2059C16.3387 15.2059 16.1061 15.1273 15.9233 14.9702ZM6.55108 9.57017C7.79738 9.57017 8.8569 9.19503 9.72965 8.44475C10.6024 7.69446 11.0384 6.78389 11.0378 5.71303C11.0378 4.6416 10.6014 3.73074 9.72865 2.98046C8.85591 2.23017 7.79672 1.85532 6.55108 1.85589C5.30478 1.85589 4.24526 2.23103 3.37251 2.98132C2.49977 3.7316 2.06373 4.64217 2.0644 5.71303C2.0644 6.78446 2.50077 7.69532 3.37351 8.4456C4.24625 9.19589 5.30544 9.57074 6.55108 9.57017Z" fill="#D04E62"/>
</svg>
