<svg width="64" height="78" viewBox="0 0 64 78" fill="none" xmlns="http://www.w3.org/2000/svg">
<path d="M8.52465 0.339844C6.26377 0.339844 4.09549 1.29313 2.49681 2.99C0.89813 4.68687 0 6.98831 0 9.38805V63.6773C0 66.077 0.89813 68.3784 2.49681 70.0753C4.09549 71.7722 6.26377 72.7255 8.52465 72.7255H26.6694C25.5838 71.3299 24.6448 69.8129 23.869 68.2014H8.52465C7.39421 68.2014 6.31007 67.7247 5.51073 66.8763C4.71139 66.0279 4.26232 64.8771 4.26232 63.6773H22.1939C21.054 59.4153 21.0068 54.9076 22.0572 50.6199C23.1076 46.3321 25.2175 42.4198 28.1689 39.287C31.1204 36.1543 34.8064 33.9148 38.846 32.7999C42.8857 31.685 47.1326 31.7351 51.1479 32.945V9.38805C51.1479 6.98831 50.2498 4.68687 48.6511 2.99C47.0524 1.29313 44.8841 0.339844 42.6232 0.339844H8.52465ZM11.7214 11.6501H39.4265C40.2743 11.6501 41.0874 12.0076 41.6869 12.6439C42.2864 13.2802 42.6232 14.1433 42.6232 15.0432C42.6232 15.9431 42.2864 16.8061 41.6869 17.4424C41.0874 18.0788 40.2743 18.4362 39.4265 18.4362H11.7214C10.8736 18.4362 10.0605 18.0788 9.46095 17.4424C8.86145 16.8061 8.52465 15.9431 8.52465 15.0432C8.52465 14.1433 8.86145 13.2802 9.46095 12.6439C10.0605 12.0076 10.8736 11.6501 11.7214 11.6501ZM63.9349 56.8911C63.9349 62.2905 61.9141 67.4688 58.317 71.2867C54.72 75.1047 49.8414 77.2496 44.7544 77.2496C39.6674 77.2496 34.7888 75.1047 31.1918 71.2867C27.5947 67.4688 25.5739 62.2905 25.5739 56.8911C25.5739 51.4917 27.5947 46.3135 31.1918 42.4955C34.7888 38.6776 39.6674 36.5327 44.7544 36.5327C49.8414 36.5327 54.72 38.6776 58.317 42.4955C61.9141 46.3135 63.9349 51.4917 63.9349 56.8911ZM42.7085 47.9967C42.4321 47.7953 42.111 47.6739 41.7768 47.6445C41.4427 47.6151 41.1071 47.6788 40.8032 47.8293C40.5552 47.9452 40.3309 48.1111 40.1426 48.3179C39.7455 48.7498 39.5236 49.3296 39.5245 49.933V63.8447C39.5219 64.1445 39.5752 64.442 39.6813 64.7199C39.7873 64.9979 39.9441 65.2509 40.1426 65.4643C40.3371 65.6696 40.5635 65.8379 40.8118 65.9619C41.2442 66.1723 41.7349 66.2045 42.1885 66.0524C42.385 65.9837 42.5715 65.8863 42.7426 65.7629L52.5289 58.6736C52.8267 58.4654 53.0665 58.1764 53.2236 57.8366C53.3856 57.4944 53.4688 57.1164 53.4666 56.7334C53.4644 56.3504 53.3767 55.9735 53.2109 55.6334C53.0442 55.2986 52.799 55.015 52.4991 54.81L42.7085 47.9967Z" fill="#D04E62"/>
</svg>
