<svg width="74" height="69" viewBox="0 0 74 69" fill="none" xmlns="http://www.w3.org/2000/svg">
<path d="M37 8.688C31.2521 8.68929 25.6335 10.4908 20.8544 13.8647C16.0752 17.2387 12.35 22.0338 10.1495 27.6439C7.94902 33.254 7.37201 39.4274 8.49141 45.3839C9.6108 51.3404 12.3764 56.8127 16.4386 61.1091C17.1816 61.8955 17.5984 62.9616 17.5974 64.0728C17.5964 65.1839 17.1777 66.2492 16.4333 67.0341C15.6889 67.8191 14.6799 68.2595 13.6281 68.2585C12.5764 68.2574 11.5681 67.815 10.8252 67.0285C5.65398 61.5602 2.13342 54.5947 0.708499 47.0128C-0.716424 39.4309 0.0182656 31.5728 2.8197 24.4319C5.62113 17.291 10.3635 11.1879 16.4474 6.89415C22.5313 2.60034 29.6835 0.308594 37 0.308594C44.3165 0.308594 51.4687 2.60034 57.5526 6.89415C63.6365 11.1879 68.3789 17.291 71.1803 24.4319C73.9817 31.5728 74.7164 39.4309 73.2915 47.0128C71.8666 54.5947 68.346 61.5602 63.1748 67.0285C62.8093 67.4288 62.372 67.748 61.8885 67.9678C61.4049 68.1875 60.8848 68.3033 60.3584 68.3084C59.832 68.3135 59.31 68.2078 58.8227 67.9974C58.3354 67.7871 57.8926 67.4763 57.5202 67.0833C57.1479 66.6902 56.8533 66.2227 56.6537 65.7081C56.4542 65.1935 56.3536 64.642 56.3579 64.0859C56.3623 63.5297 56.4714 62.9801 56.6789 62.469C56.8864 61.9579 57.1882 61.4956 57.5667 61.1091C61.6292 56.8123 64.3949 51.3396 65.5141 45.3826C66.6334 39.4255 66.0559 33.2517 63.8548 27.6413C61.6536 22.031 57.9276 17.236 53.1476 13.8624C48.3677 10.4889 42.7484 8.68819 37 8.688ZM37 31.0257C34.8972 31.0257 32.8805 31.9083 31.3937 33.4792C29.9068 35.0501 29.0714 37.1807 29.0714 39.4024C29.0714 41.624 29.9068 43.7546 31.3937 45.3256C32.8805 46.8965 34.8972 47.779 37 47.779C39.1028 47.779 41.1194 46.8965 42.6063 45.3256C44.0932 43.7546 44.9286 41.624 44.9286 39.4024C44.9286 37.1807 44.0932 35.0501 42.6063 33.4792C41.1194 31.9083 39.1028 31.0257 37 31.0257ZM22.4643 39.4024C22.4642 36.8773 23.0535 34.3912 24.1798 32.1642C25.3062 29.9372 26.9349 28.0379 28.9218 26.6347C30.9088 25.2314 33.1925 24.3674 35.5709 24.1191C37.9493 23.8709 40.3489 24.246 42.5573 25.2114C44.7657 26.1768 46.7148 27.7026 48.2318 29.6537C49.7489 31.6048 50.7872 33.921 51.2548 36.3973C51.7224 38.8735 51.6048 41.4334 50.9126 43.8501C50.2203 46.2669 48.9747 48.4661 47.286 50.2529C46.543 51.0394 46.1262 52.1054 46.1271 53.2166C46.1281 54.3278 46.5469 55.393 47.2913 56.178C48.0357 56.963 49.0447 57.4034 50.0964 57.4023C51.1482 57.4013 52.1564 56.9589 52.8994 56.1724C56.0377 52.8517 58.1738 48.6227 59.0378 44.0198C59.9018 39.4169 59.4549 34.6466 57.7536 30.312C56.0524 25.9773 53.173 22.2727 49.4796 19.6664C45.7861 17.0601 41.4442 15.6691 37.0026 15.6691C32.5611 15.6691 28.2192 17.0601 24.5257 19.6664C20.8322 22.2727 17.9529 25.9773 16.2516 30.312C14.5504 34.6466 14.1035 39.4169 14.9675 44.0198C15.8315 48.6227 17.9676 52.8517 21.1059 56.1724C21.4688 56.5839 21.9064 56.914 22.3927 57.1429C22.879 57.3718 23.404 57.4949 23.9362 57.5048C24.4685 57.5147 24.9973 57.4113 25.4909 57.2006C25.9845 56.99 26.4329 56.6764 26.8093 56.2787C27.1858 55.881 27.4826 55.4073 27.6819 54.8857C27.8813 54.3642 27.9792 53.8056 27.9698 53.2433C27.9605 52.6809 27.8439 52.1263 27.6273 51.6125C27.4106 51.0987 27.0982 50.6364 26.7087 50.2529C25.3597 48.8288 24.2903 47.1371 23.5619 45.275C22.8335 43.413 22.4605 41.4172 22.4643 39.4024Z" fill="#D04E62"/>
</svg>
