<svg width="20" height="20" viewBox="0 0 20 20" fill="none" xmlns="http://www.w3.org/2000/svg">
<g id="Iconsax/Linear/verify" clip-path="url(#clip0_14920_25710)">
<path id="Vector" d="M8.95937 2.04062C9.53437 1.54896 10.476 1.54896 11.0594 2.04062L12.376 3.17396C12.626 3.39062 13.0927 3.56562 13.426 3.56562H14.8427C15.726 3.56562 16.451 4.29062 16.451 5.17396V6.59062C16.451 6.91562 16.626 7.39062 16.8427 7.64062L17.976 8.95729C18.4677 9.53229 18.4677 10.474 17.976 11.0573L16.8427 12.374C16.626 12.624 16.451 13.0906 16.451 13.424V14.8406C16.451 15.724 15.726 16.449 14.8427 16.449H13.426C13.101 16.449 12.626 16.624 12.376 16.8406L11.0594 17.974C10.4844 18.4656 9.54271 18.4656 8.95937 17.974L7.64271 16.8406C7.39271 16.624 6.92604 16.449 6.59271 16.449H5.15104C4.26771 16.449 3.54271 15.724 3.54271 14.8406V13.4156C3.54271 13.0906 3.36771 12.624 3.15937 12.374L2.03437 11.049C1.55104 10.474 1.55104 9.54063 2.03437 8.96563L3.15937 7.64062C3.36771 7.39062 3.54271 6.92396 3.54271 6.59896V5.16562C3.54271 4.28229 4.26771 3.55729 5.15104 3.55729H6.59271C6.91771 3.55729 7.39271 3.38229 7.64271 3.16562L8.95937 2.04062Z" fill="#31E859" stroke="#31E859" stroke-width="2" stroke-linecap="round" stroke-linejoin="round"/>
<path id="Vector_2" d="M6.98438 10.001L8.99271 12.0177L13.0177 7.98438" stroke="white" stroke-width="2" stroke-linecap="round" stroke-linejoin="round"/>
</g>
<defs>
<clipPath id="clip0_14920_25710">
<rect width="20" height="20" fill="white"/>
</clipPath>
</defs>
</svg>
