<svg width="30" height="30" viewBox="0 0 30 30" fill="none" xmlns="http://www.w3.org/2000/svg">
<path d="M15.0255 24.9298C9.56098 24.9298 5.12109 20.4899 5.12109 15.0255C5.12109 9.56098 9.56098 5.12109 15.0255 5.12109C20.4899 5.12109 24.9298 9.56098 24.9298 15.0255C24.9298 20.4899 20.4899 24.9298 15.0255 24.9298ZM15.0255 7.17027C10.6949 7.17027 7.17027 10.6949 7.17027 15.0255C7.17027 19.3561 10.6949 22.8807 15.0255 22.8807C19.3561 22.8807 22.8807 19.3561 22.8807 15.0255C22.8807 10.6949 19.3561 7.17027 15.0255 7.17027Z" fill="#F82083" fill-opacity="0.8"/>
<path d="M15.0273 30C14.276 30 13.6612 29.4399 13.6612 28.6885V28.5792C13.6612 27.8279 14.276 27.2131 15.0273 27.2131C15.7787 27.2131 16.3934 27.8279 16.3934 28.5792C16.3934 29.3306 15.7787 30 15.0273 30ZM24.7814 26.1475C24.4262 26.1475 24.0847 26.0109 23.8115 25.7514L23.6339 25.5738C23.1011 25.041 23.1011 24.1803 23.6339 23.6475C24.1667 23.1148 25.0273 23.1148 25.5601 23.6475L25.7377 23.8251C26.2705 24.3579 26.2705 25.2186 25.7377 25.7514C25.4781 26.0109 25.1366 26.1475 24.7814 26.1475ZM5.27322 26.1475C4.91803 26.1475 4.5765 26.0109 4.30328 25.7514C3.77049 25.2186 3.77049 24.3579 4.30328 23.8251L4.48087 23.6475C5.01366 23.1148 5.87432 23.1148 6.4071 23.6475C6.93989 24.1803 6.93989 25.041 6.4071 25.5738L6.22951 25.7514C5.96995 26.0109 5.61475 26.1475 5.27322 26.1475ZM28.6885 16.3934H28.5792C27.8279 16.3934 27.2131 15.7787 27.2131 15.0273C27.2131 14.276 27.8279 13.6612 28.5792 13.6612C29.3306 13.6612 30 14.276 30 15.0273C30 15.7787 29.4399 16.3934 28.6885 16.3934ZM1.47541 16.3934H1.36612C0.614754 16.3934 0 15.7787 0 15.0273C0 14.276 0.614754 13.6612 1.36612 13.6612C2.11749 13.6612 2.78689 14.276 2.78689 15.0273C2.78689 15.7787 2.22678 16.3934 1.47541 16.3934ZM24.6038 6.81694C24.2486 6.81694 23.9071 6.68033 23.6339 6.42076C23.1011 5.88798 23.1011 5.02732 23.6339 4.49454L23.8115 4.31694C24.3443 3.78415 25.2049 3.78415 25.7377 4.31694C26.2705 4.84973 26.2705 5.71038 25.7377 6.24317L25.5601 6.42076C25.3005 6.68033 24.959 6.81694 24.6038 6.81694ZM5.45082 6.81694C5.09563 6.81694 4.7541 6.68033 4.48087 6.42076L4.30328 6.22951C3.77049 5.69672 3.77049 4.83607 4.30328 4.30328C4.83607 3.77049 5.69672 3.77049 6.22951 4.30328L6.4071 4.48087C6.93989 5.01366 6.93989 5.87432 6.4071 6.4071C6.14754 6.68033 5.79235 6.81694 5.45082 6.81694ZM15.0273 2.78689C14.276 2.78689 13.6612 2.22678 13.6612 1.47541V1.36612C13.6612 0.614754 14.276 0 15.0273 0C15.7787 0 16.3934 0.614754 16.3934 1.36612C16.3934 2.11749 15.7787 2.78689 15.0273 2.78689Z" fill="#F82083" fill-opacity="0.8"/>
</svg>
