<svg width="12" height="18" viewBox="0 0 12 18" fill="none" xmlns="http://www.w3.org/2000/svg">
<path d="M6.00143 0C3.76847 0 1.95312 1.81535 1.95312 4.04831C1.95312 6.23865 3.6662 8.01139 5.89916 8.08809C5.96734 8.07957 6.03552 8.07957 6.08666 8.08809H6.12927H6.14632C8.32814 8.01139 10.0412 6.23865 10.0497 4.04831C10.0497 1.81535 8.23439 0 6.00143 0Z" fill="white"/>
<path d="M10.3295 10.3647C7.95169 8.77947 4.07388 8.77947 1.67898 10.3647C0.596593 11.0806 0 12.0607 0 13.109C0 14.1573 0.596593 15.1289 1.67046 15.8448C2.86364 16.646 4.4318 17.0465 5.99998 17.0465C7.56817 17.0465 9.13636 16.646 10.3295 15.8448C11.4034 15.1204 12 14.1488 12 13.092C11.9915 12.0522 11.4034 11.0721 10.3295 10.3647ZM7.98578 12.4102L5.83805 14.5579C5.73578 14.6602 5.59941 14.7113 5.46305 14.7113C5.32669 14.7113 5.19032 14.6516 5.08805 14.5579L4.01422 13.484C3.80967 13.2795 3.80967 12.9386 4.01422 12.734C4.21876 12.5295 4.55964 12.5295 4.76418 12.734L5.46305 13.4329L7.23578 11.6602C7.44033 11.4556 7.78124 11.4556 7.98578 11.6602C8.19885 11.8647 8.19885 12.2056 7.98578 12.4102Z" fill="white"/>
</svg>
