<svg width="30" height="31" viewBox="0 0 30 31" fill="none" xmlns="http://www.w3.org/2000/svg">
<g id="Iconsax/Linear/bag">
<path id="Vector" d="M11.0094 3.04688L6.48438 7.58438M18.9844 3.04688L23.5094 7.58438" stroke="white" stroke-width="1.5" stroke-miterlimit="10" stroke-linecap="round" stroke-linejoin="round"/>
<path id="Vector_2" d="M2.5 10.3594C2.5 8.04687 3.7375 7.85938 5.275 7.85938H24.725C26.2625 7.85938 27.5 8.04687 27.5 10.3594C27.5 13.0469 26.2625 12.8594 24.725 12.8594H5.275C3.7375 12.8594 2.5 13.0469 2.5 10.3594Z" stroke="white" stroke-width="1.5"/>
<path id="Vector_3" d="M12.2 18.0469V22.4844M17.95 18.0469V22.4844M4.375 13.0469L6.1375 23.8469C6.5375 26.2719 7.5 28.0469 11.075 28.0469H18.6125C22.5 28.0469 23.075 26.3469 23.525 23.9969L25.625 13.0469" stroke="white" stroke-width="1.5" stroke-linecap="round"/>
</g>
</svg>
