<svg width="19" height="28" viewBox="0 0 19 28" fill="none" xmlns="http://www.w3.org/2000/svg">
<g id="&#240;&#159;&#166;&#134; icon &#34;profile add&#34;">
<g id="Group">
<path id="Vector" d="M17.8292 23.1309H12.7812" stroke="white" stroke-width="2" stroke-linecap="round" stroke-linejoin="round"/>
<path id="Vector_2" d="M15.3047 25.6554V20.6074" stroke="white" stroke-width="2" stroke-linecap="round" stroke-linejoin="round"/>
<path id="Vector_3" d="M9.82864 12.2407C9.70244 12.228 9.55101 12.228 9.41219 12.2407C6.40863 12.1397 4.02348 9.67884 4.02348 6.65008C4.01087 3.55822 6.52221 1.04688 9.6141 1.04688C12.706 1.04688 15.2173 3.55822 15.2173 6.65008C15.2173 9.67884 12.8195 12.1397 9.82864 12.2407Z" stroke="white" stroke-width="2" stroke-linecap="round" stroke-linejoin="round"/>
<path id="Vector_4" d="M9.61298 26.0472C7.31617 26.0472 5.03203 25.4666 3.2905 24.3056C0.236501 22.2612 0.236501 18.9296 3.2905 16.8978C6.76095 14.5757 12.4524 14.5757 15.9229 16.8978" stroke="white" stroke-width="2" stroke-linecap="round" stroke-linejoin="round"/>
</g>
</g>
</svg>
