<svg width="30" height="30" viewBox="0 0 30 30" fill="none" xmlns="http://www.w3.org/2000/svg">
<g clip-path="url(#clip0_14573_118492)">
<path d="M30 15C30 6.71573 23.2843 0 15 0C6.71573 0 0 6.71573 0 15C0 23.2843 6.71573 30 15 30C23.2843 30 30 23.2843 30 15Z" fill="#1778F2"/>
<path d="M16.1991 23.468V15.4387H18.8943L19.2984 12.3096H16.1991V10.3117C16.1991 9.40578 16.4508 8.78837 17.7499 8.78837H19.4069V5.99044C18.6049 5.90559 17.7988 5.86449 16.9923 5.86733C14.6032 5.86733 12.9676 7.32552 12.9676 10.0036V12.3096H10.2656V15.4387H12.9676V23.468H16.1991Z" fill="#FDFDFD"/>
</g>
<defs>
<clipPath id="clip0_14573_118492">
<rect width="30" height="30" fill="white"/>
</clipPath>
</defs>
</svg>
