<svg width="30" height="30" viewBox="0 0 30 30" fill="none" xmlns="http://www.w3.org/2000/svg">
<g clip-path="url(#clip0_14573_118483)">
<path d="M6.64863 18.1293L5.60437 22.0276L1.78764 22.1084C0.646992 19.9927 0 17.5722 0 14.9999C0 12.5126 0.604922 10.1669 1.67719 8.10156H1.67801L5.07597 8.72453L6.56449 12.1021C6.25294 13.0104 6.08314 13.9854 6.08314 14.9999C6.08326 16.101 6.28271 17.156 6.64863 18.1293Z" fill="#FBBB00"/>
<path d="M29.7363 12.1953C29.9085 13.1027 29.9984 14.0398 29.9984 14.9975C29.9984 16.0714 29.8855 17.1189 29.6704 18.1294C28.9402 21.5678 27.0322 24.5703 24.3891 26.695L24.3882 26.6942L20.1083 26.4758L19.5026 22.6945C21.2564 21.6659 22.627 20.0563 23.349 18.1294H15.3281V12.1953H29.7363Z" fill="#518EF8"/>
<path d="M24.3913 26.7001L24.3921 26.7009C21.8215 28.7671 18.5561 30.0034 15.0014 30.0034C9.28906 30.0034 4.3226 26.8105 1.78906 22.1119L6.65006 18.1328C7.9168 21.5136 11.1781 23.9202 15.0014 23.9202C16.6448 23.9202 18.1844 23.4759 19.5055 22.7004L24.3913 26.7001Z" fill="#28B446"/>
<path d="M24.577 3.45328L19.7176 7.43156C18.3503 6.57691 16.7341 6.0832 15.0025 6.0832C11.0926 6.0832 7.77033 8.60021 6.56705 12.1022L1.68051 8.10164H1.67969C4.17613 3.28846 9.20523 0 15.0025 0C18.642 0 21.9791 1.29645 24.577 3.45328Z" fill="#F14336"/>
</g>
<defs>
<clipPath id="clip0_14573_118483">
<rect width="30" height="30" fill="white"/>
</clipPath>
</defs>
</svg>
