<svg width="1920" height="1080" viewBox="0 0 1920 1080" fill="none" xmlns="http://www.w3.org/2000/svg">
<g clip-path="url(#clip0_12_14)">
<rect width="1920" height="1080" fill="white"/>
<g clip-path="url(#clip1_12_14)">
<path d="M1920 1080H0V0H1920V1080Z" fill="url(#paint0_linear_12_14)"/>
<path d="M624.297 924.175C626.35 924.175 628.014 925.298 628.014 926.685C628.014 928.071 626.35 929.192 624.297 929.192C622.244 929.192 620.58 928.069 620.58 926.685C620.58 925.3 622.244 924.175 624.297 924.175Z" fill="url(#paint1_linear_12_14)"/>
<path d="M726.61 931.013C728.663 931.013 730.327 932.136 730.327 933.523C730.327 934.908 728.663 936.031 726.61 936.031C724.557 936.031 722.893 934.908 722.893 933.523C722.893 932.136 724.557 931.013 726.61 931.013Z" fill="url(#paint2_linear_12_14)"/>
<path d="M728.558 866.166C730.523 866.166 732.116 865.09 732.116 863.764C732.116 862.437 730.523 861.362 728.558 861.362C726.593 861.362 725 862.437 725 863.764C725 865.09 726.593 866.166 728.558 866.166Z" fill="url(#paint3_linear_12_14)"/>
<path d="M960.614 939.61C962.667 939.61 964.331 940.733 964.331 942.12C964.331 943.504 962.667 944.628 960.614 944.628C958.561 944.628 956.897 943.504 956.897 942.12C956.897 940.735 958.561 939.61 960.614 939.61Z" fill="url(#paint4_linear_12_14)"/>
<path d="M962.563 874.763C964.528 874.763 966.121 873.687 966.121 872.361C966.121 871.034 964.528 869.959 962.563 869.959C960.597 869.959 959.004 871.034 959.004 872.361C959.004 873.687 960.597 874.763 962.563 874.763Z" fill="url(#paint5_linear_12_14)"/>
<path d="M1182.58 866.166C1184.55 866.166 1186.14 865.09 1186.14 863.764C1186.14 862.437 1184.55 861.362 1182.58 861.362C1180.62 861.362 1179.02 862.437 1179.02 863.764C1179.02 865.09 1180.62 866.166 1182.58 866.166Z" fill="url(#paint6_linear_12_14)"/>
<path d="M805.962 865.887C808.128 865.887 809.884 867.073 809.884 868.535C809.884 869.998 808.128 871.181 805.962 871.181C803.796 871.181 802.04 869.995 802.04 868.535C802.04 867.071 803.796 865.887 805.962 865.887Z" fill="url(#paint7_linear_12_14)"/>
<path d="M411.904 923.624L396.119 926.287L392.174 936.942L388.229 926.287L372.444 923.624L388.229 920.958L392.174 910.303L396.119 920.958L411.904 923.624Z" fill="url(#paint8_linear_12_14)"/>
<path d="M279.278 865.606C277.542 865.606 276.134 864.656 276.134 863.483C276.134 862.312 277.542 861.362 279.278 861.362C281.016 861.362 282.424 862.312 282.424 863.483C282.424 864.656 281.016 865.606 279.278 865.606Z" fill="url(#paint9_linear_12_14)"/>
<path d="M362.481 954.946C360.315 954.946 358.559 953.76 358.559 952.298C358.559 950.836 360.315 949.65 362.481 949.65C364.646 949.65 366.402 950.836 366.402 952.298C366.402 953.76 364.646 954.946 362.481 954.946Z" fill="url(#paint10_linear_12_14)"/>
<path d="M1852.42 922.678L1836.63 925.343L1832.69 935.996L1828.74 925.343L1812.96 922.678L1828.74 920.012L1832.69 909.357L1836.63 920.012L1852.42 922.678Z" fill="url(#paint11_linear_12_14)"/>
<path d="M1369.15 898.283C1371.46 898.283 1373.33 897.019 1373.33 895.46C1373.33 893.901 1371.46 892.637 1369.15 892.637C1366.84 892.637 1364.97 893.901 1364.97 895.46C1364.97 897.019 1366.84 898.283 1369.15 898.283Z" fill="url(#paint12_linear_12_14)"/>
<path d="M1181.38 930.776C1179.64 930.776 1178.23 929.825 1178.23 928.652C1178.23 927.48 1179.64 926.529 1181.38 926.529C1183.11 926.529 1184.52 927.48 1184.52 928.652C1184.52 929.825 1183.11 930.776 1181.38 930.776Z" fill="url(#paint13_linear_12_14)"/>
<path d="M1719.79 864.66C1718.06 864.66 1716.65 863.71 1716.65 862.537C1716.65 861.366 1718.06 860.416 1719.79 860.416C1721.53 860.416 1722.94 861.366 1722.94 862.537C1722.94 863.71 1721.53 864.66 1719.79 864.66Z" fill="url(#paint14_linear_12_14)"/>
<path d="M1803 954C1800.83 954 1799.07 952.814 1799.07 951.352C1799.07 949.889 1800.83 948.704 1803 948.704C1805.16 948.704 1806.92 949.889 1806.92 951.352C1806.92 952.814 1805.16 954 1803 954Z" fill="url(#paint15_linear_12_14)"/>
<path d="M475.735 391.391L488.799 388.998L492.063 379.425L495.329 388.998L508.393 391.391L495.329 393.782L492.063 403.353L488.799 393.782L475.735 391.391Z" fill="url(#paint16_linear_12_14)"/>
<path d="M1293.34 238.036L1305.92 235.731L1309.07 226.514L1312.21 235.731L1324.79 238.036L1312.21 240.338L1309.07 249.555L1305.92 240.338L1293.34 238.036Z" fill="url(#paint17_linear_12_14)"/>
<path d="M508.393 842.738L524.178 839.848L528.123 828.286L532.068 839.848L547.853 842.738L532.068 845.631L528.123 857.193L524.178 845.631L508.393 842.738Z" fill="url(#paint18_linear_12_14)"/>
<path d="M640.593 283.939L662.366 279.951L667.809 264L673.254 279.951L695.027 283.939L673.254 287.926L667.809 303.878L662.366 287.926L640.593 283.939Z" fill="url(#paint19_linear_12_14)"/>
<path d="M860.495 721.122C863.117 721.122 865.241 722.677 865.241 724.597C865.241 726.517 863.117 728.075 860.495 728.075C857.874 728.075 855.749 726.517 855.749 724.597C855.749 722.677 857.874 721.122 860.495 721.122Z" fill="url(#paint20_linear_12_14)"/>
<path d="M965.88 296.919C968.192 296.919 970.063 298.291 970.063 299.982C970.063 301.676 968.192 303.045 965.88 303.045C963.574 303.045 961.7 301.674 961.7 299.982C961.702 298.291 963.574 296.919 965.88 296.919Z" fill="url(#paint21_linear_12_14)"/>
<path d="M864.576 160.114C866.542 160.114 868.137 161.28 868.137 162.721C868.137 164.161 866.545 165.328 864.576 165.328C862.61 165.328 861.018 164.161 861.018 162.721C861.018 161.28 862.61 160.114 864.576 160.114Z" fill="url(#paint22_linear_12_14)"/>
<path d="M1153.66 261.66C1155.39 261.66 1156.8 262.692 1156.8 263.964C1156.8 265.236 1155.39 266.267 1153.66 266.267C1151.92 266.267 1150.51 265.234 1150.51 263.964C1150.51 262.692 1151.92 261.66 1153.66 261.66Z" fill="url(#paint23_linear_12_14)"/>
<path d="M1164.43 455.787C1166.54 455.787 1168.24 457.038 1168.24 458.58C1168.24 460.122 1166.54 461.373 1164.43 461.373C1162.32 461.373 1160.61 460.122 1160.61 458.58C1160.61 457.036 1162.32 455.787 1164.43 455.787Z" fill="url(#paint24_linear_12_14)"/>
<path d="M783.053 341.735C786.091 341.735 788.554 339.93 788.554 337.704C788.554 335.478 786.091 333.674 783.053 333.674C780.014 333.674 777.551 335.478 777.551 337.704C777.551 339.93 780.014 341.735 783.053 341.735Z" fill="url(#paint25_linear_12_14)"/>
<path d="M537.142 220.416C539.341 220.416 541.125 221.723 541.125 223.335C541.125 224.946 539.341 226.253 537.142 226.253C534.943 226.253 533.158 224.946 533.158 223.335C533.158 221.723 534.94 220.416 537.142 220.416Z" fill="url(#paint26_linear_12_14)"/>
<path d="M538.842 189.699C541.98 189.699 544.525 191.563 544.525 193.861C544.525 196.162 541.98 198.026 538.842 198.026C535.703 198.026 533.158 196.162 533.158 193.861C533.158 191.563 535.703 189.699 538.842 189.699Z" fill="url(#paint27_linear_12_14)"/>
<path d="M624.297 123.169C626.35 123.169 628.014 124.389 628.014 125.893C628.014 127.396 626.35 128.614 624.297 128.614C622.244 128.614 620.58 127.396 620.58 125.893C620.58 124.389 622.244 123.169 624.297 123.169Z" fill="url(#paint28_linear_12_14)"/>
<path d="M1070.45 164.714C1072.62 164.714 1074.38 166 1074.38 167.587C1074.38 169.173 1072.62 170.46 1070.45 170.46C1068.29 170.46 1066.53 169.175 1066.53 167.587C1066.53 166.002 1068.29 164.714 1070.45 164.714Z" fill="url(#paint29_linear_12_14)"/>
<path d="M991.662 869.211C993.971 869.211 995.842 870.583 995.842 872.274C995.842 873.966 993.971 875.337 991.662 875.337C989.355 875.337 987.481 873.966 987.481 872.274C987.481 870.583 989.355 869.211 991.662 869.211Z" fill="url(#paint30_linear_12_14)"/>
<path d="M1018.83 727.79C1022.3 727.79 1025.12 729.852 1025.12 732.399C1025.12 734.946 1022.3 737.009 1018.83 737.009C1015.35 737.009 1012.54 734.946 1012.54 732.399C1012.54 729.852 1015.35 727.79 1018.83 727.79Z" fill="url(#paint31_linear_12_14)"/>
<path d="M1179.44 833.951C1181.17 833.951 1182.58 834.984 1182.58 836.256C1182.58 837.528 1181.17 838.559 1179.44 838.559C1177.7 838.559 1176.29 837.526 1176.29 836.256C1176.29 834.984 1177.7 833.951 1179.44 833.951Z" fill="url(#paint32_linear_12_14)"/>
<path d="M1096.23 737.006C1098.4 737.006 1100.15 738.292 1100.15 739.879C1100.15 741.465 1098.4 742.752 1096.23 742.752C1094.07 742.752 1092.31 741.465 1092.31 739.879C1092.31 738.294 1094.07 737.006 1096.23 737.006Z" fill="url(#paint33_linear_12_14)"/>
<path d="M562.289 643.008C565.762 643.008 568.578 645.07 568.578 647.617C568.578 650.164 565.762 652.226 562.289 652.226C558.815 652.226 555.996 650.164 555.996 647.617C555.999 645.07 558.815 643.008 562.289 643.008Z" fill="url(#paint34_linear_12_14)"/>
<path d="M722.895 749.171C724.631 749.171 726.039 750.204 726.039 751.476C726.039 752.748 724.631 753.781 722.895 753.781C721.157 753.781 719.749 752.748 719.749 751.476C719.749 750.204 721.157 749.171 722.895 749.171Z" fill="url(#paint35_linear_12_14)"/>
<path d="M639.693 652.226C641.859 652.226 643.615 653.512 643.615 655.101C643.615 656.687 641.859 657.974 639.693 657.974C637.527 657.974 635.771 656.689 635.771 655.101C635.771 653.512 637.527 652.226 639.693 652.226Z" fill="url(#paint36_linear_12_14)"/>
<path d="M599.078 541.87C601.388 541.87 603.259 543.241 603.259 544.933C603.259 546.624 601.388 547.996 599.078 547.996C596.769 547.996 594.898 546.624 594.898 544.933C594.898 543.241 596.769 541.87 599.078 541.87Z" fill="url(#paint37_linear_12_14)"/>
<path d="M626.245 404.753C628.211 404.753 629.804 405.919 629.804 407.36C629.804 408.801 628.211 409.967 626.245 409.967C624.279 409.967 622.687 408.801 622.687 407.36C622.687 405.919 624.279 404.753 626.245 404.753Z" fill="url(#paint38_linear_12_14)"/>
<path d="M786.849 506.612C788.585 506.612 789.993 507.645 789.993 508.917C789.993 510.189 788.585 511.222 786.849 511.222C785.111 511.222 783.703 510.189 783.703 508.917C783.706 507.642 785.114 506.612 786.849 506.612Z" fill="url(#paint39_linear_12_14)"/>
<path d="M703.647 409.667C705.812 409.667 707.569 410.952 707.569 412.542C707.569 414.127 705.812 415.415 703.647 415.415C701.481 415.415 699.725 414.13 699.725 412.542C699.725 410.952 701.481 409.667 703.647 409.667Z" fill="url(#paint40_linear_12_14)"/>
<path d="M641.019 905.696C642.754 905.696 644.162 906.728 644.162 908.001C644.162 909.271 642.754 910.303 641.019 910.303C639.281 910.303 637.873 909.271 637.873 908.001C637.873 906.728 639.281 905.696 641.019 905.696Z" fill="url(#paint41_linear_12_14)"/>
<path d="M557.816 808.751C559.982 808.751 561.738 810.036 561.738 811.626C561.738 813.211 559.982 814.499 557.816 814.499C555.65 814.499 553.894 813.211 553.894 811.626C553.894 810.036 555.65 808.751 557.816 808.751Z" fill="url(#paint42_linear_12_14)"/>
<path d="M964.654 543.613C966.392 543.613 967.8 544.645 967.8 545.918C967.8 547.19 966.392 548.222 964.654 548.222C962.916 548.222 961.508 547.19 961.508 545.918C961.51 544.643 962.918 543.613 964.654 543.613Z" fill="url(#paint43_linear_12_14)"/>
<path d="M722.173 598.399C724.05 598.399 725.568 599.512 725.568 600.885C725.568 602.259 724.047 603.374 722.173 603.374C720.297 603.374 718.779 602.259 718.779 600.885C718.779 599.514 720.297 598.399 722.173 598.399Z" fill="url(#paint44_linear_12_14)"/>
<path d="M927.457 637.86C929.623 637.86 931.379 639.145 931.379 640.735C931.379 642.321 929.623 643.608 927.457 643.608C925.291 643.608 923.533 642.323 923.533 640.735C923.533 639.148 925.291 637.86 927.457 637.86Z" fill="url(#paint45_linear_12_14)"/>
<path d="M1290.2 164.062C1291.93 164.062 1293.34 165.095 1293.34 166.367C1293.34 167.639 1291.93 168.669 1290.2 168.669C1288.46 168.669 1287.05 167.637 1287.05 166.367C1287.05 165.092 1288.46 164.062 1290.2 164.062Z" fill="url(#paint46_linear_12_14)"/>
<path d="M1047.71 218.727C1049.68 218.727 1051.27 219.896 1051.27 221.334C1051.27 222.775 1049.68 223.942 1047.71 223.942C1045.75 223.942 1044.15 222.773 1044.15 221.334C1044.16 219.896 1045.75 218.727 1047.71 218.727Z" fill="url(#paint47_linear_12_14)"/>
<path d="M970.862 431.196C973.171 431.196 975.045 432.567 975.045 434.259C975.045 435.95 973.174 437.321 970.862 437.321C968.553 437.321 966.681 435.95 966.681 434.259C966.684 432.565 968.555 431.196 970.862 431.196Z" fill="url(#paint48_linear_12_14)"/>
<path d="M1127.84 380.732C1129.8 380.732 1131.4 381.9 1131.4 383.339C1131.4 384.78 1129.8 385.946 1127.84 385.946C1125.87 385.946 1124.28 384.78 1124.28 383.339C1124.28 381.898 1125.87 380.732 1127.84 380.732Z" fill="url(#paint49_linear_12_14)"/>
<path d="M1266.96 711.864C1268.69 711.864 1270.1 712.896 1270.1 714.169C1270.1 715.441 1268.69 716.473 1266.96 716.473C1265.22 716.473 1263.81 715.441 1263.81 714.169C1263.82 712.894 1265.22 711.864 1266.96 711.864Z" fill="url(#paint50_linear_12_14)"/>
<path d="M1205.24 385.643C1207.41 385.643 1209.16 386.929 1209.16 388.518C1209.16 390.104 1207.41 391.391 1205.24 391.391C1203.07 391.391 1201.32 390.106 1201.32 388.518C1201.32 386.929 1203.07 385.643 1205.24 385.643Z" fill="url(#paint51_linear_12_14)"/>
<path d="M475.735 34.2223L488.799 31.829L492.063 22.2581L495.329 31.829L508.393 34.2223L495.329 36.6156L492.063 46.1865L488.799 36.6156L475.735 34.2223Z" fill="url(#paint52_linear_12_14)"/>
<path d="M1164.43 98.6184C1166.54 98.6184 1168.24 99.869 1168.24 101.411C1168.24 102.953 1166.54 104.204 1164.43 104.204C1162.32 104.204 1160.61 102.953 1160.61 101.411C1160.61 99.869 1162.32 98.6184 1164.43 98.6184Z" fill="url(#paint53_linear_12_14)"/>
<path d="M626.245 47.5862C628.211 47.5862 629.804 48.7548 629.804 50.1933C629.804 51.6341 628.211 52.8005 626.245 52.8005C624.279 52.8005 622.687 51.6341 622.687 50.1933C622.687 48.7548 624.279 47.5862 626.245 47.5862Z" fill="url(#paint54_linear_12_14)"/>
<path d="M703.647 52.498C705.812 52.498 707.569 53.7832 707.569 55.373C707.569 56.9584 705.812 58.2458 703.647 58.2458C701.481 58.2458 699.725 56.9606 699.725 55.373C699.725 53.7832 701.481 52.498 703.647 52.498Z" fill="url(#paint55_linear_12_14)"/>
<path d="M804.05 84.587C806.016 84.587 807.608 85.7556 807.608 87.1941C807.608 88.6349 806.016 89.8013 804.05 89.8013C802.084 89.8013 800.491 88.6327 800.491 87.1941C800.489 85.7556 802.084 84.587 804.05 84.587Z" fill="url(#paint56_linear_12_14)"/>
<path d="M881.454 89.4989C883.62 89.4989 885.376 90.7862 885.376 92.3717C885.376 93.9571 883.62 95.2445 881.454 95.2445C879.288 95.2445 877.53 93.9593 877.53 92.3717C877.53 90.7862 879.288 89.4989 881.454 89.4989Z" fill="url(#paint57_linear_12_14)"/>
<path d="M444.562 216.751L431.501 219.144L428.234 228.715L424.968 219.144L411.904 216.751L424.968 214.358L428.234 204.787L431.501 214.358L444.562 216.751Z" fill="url(#paint58_linear_12_14)"/>
<path d="M139.907 349.399L118.131 353.386L112.689 369.336L107.246 353.386L85.4733 349.399L107.246 345.409L112.689 329.46L118.131 345.409L139.907 349.399Z" fill="url(#paint59_linear_12_14)"/>
<path d="M55.7209 448.026C53.7548 448.026 52.1599 446.86 52.1599 445.419C52.1599 443.979 53.7522 442.812 55.7209 442.812C57.687 442.812 59.2793 443.979 59.2793 445.419C59.2818 446.86 57.687 448.026 55.7209 448.026Z" fill="url(#paint60_linear_12_14)"/>
<path d="M137.244 274.468C134.205 274.468 131.743 272.663 131.743 270.436C131.743 268.209 134.205 266.405 137.244 266.405C140.283 266.405 142.748 268.211 142.748 270.436C142.746 272.663 140.283 274.468 137.244 274.468Z" fill="url(#paint61_linear_12_14)"/>
<path d="M383.158 387.724C380.959 387.724 379.174 386.417 379.174 384.805C379.174 383.194 380.959 381.887 383.158 381.887C385.357 381.887 387.141 383.194 387.141 384.805C387.138 386.417 385.357 387.724 383.158 387.724Z" fill="url(#paint62_linear_12_14)"/>
<path d="M381.458 418.443C378.319 418.443 375.775 416.579 375.775 414.279C375.775 411.978 378.319 410.114 381.458 410.114C384.596 410.114 387.141 411.978 387.141 414.279C387.139 416.579 384.594 418.443 381.458 418.443Z" fill="url(#paint63_linear_12_14)"/>
<path d="M296 484.971C293.947 484.971 292.283 483.751 292.283 482.247C292.283 480.744 293.947 479.526 296 479.526C298.053 479.526 299.717 480.744 299.717 482.247C299.717 483.751 298.053 484.971 296 484.971Z" fill="url(#paint64_linear_12_14)"/>
<path d="M321.221 66.2702C318.912 66.2702 317.041 64.8986 317.041 63.2073C317.041 61.5161 318.912 60.1445 321.221 60.1445C323.528 60.1445 325.401 61.5161 325.401 63.2073C325.399 64.8986 323.528 66.2702 321.221 66.2702Z" fill="url(#paint65_linear_12_14)"/>
<path d="M294.052 203.387C296.017 203.387 297.61 202.22 297.61 200.78C297.61 199.34 296.017 198.173 294.052 198.173C292.087 198.173 290.493 199.34 290.493 200.78C290.493 202.22 292.087 203.387 294.052 203.387Z" fill="url(#paint66_linear_12_14)"/>
<path d="M133.448 101.53C131.712 101.53 130.304 100.498 130.304 99.2253C130.304 97.9531 131.712 96.9206 133.448 96.9206C135.186 96.9206 136.594 97.9531 136.594 99.2253C136.591 100.498 135.183 101.53 133.448 101.53Z" fill="url(#paint67_linear_12_14)"/>
<path d="M216.65 198.475C214.484 198.475 212.728 197.188 212.728 195.6C212.728 194.015 214.484 192.727 216.65 192.727C218.816 192.727 220.572 194.013 220.572 195.6C220.572 197.188 218.816 198.475 216.65 198.475Z" fill="url(#paint68_linear_12_14)"/>
<path d="M116.247 166.386C114.281 166.386 112.689 165.22 112.689 163.779C112.689 162.338 114.281 161.172 116.247 161.172C118.213 161.172 119.805 162.338 119.805 163.779C119.808 165.218 118.213 166.386 116.247 166.386Z" fill="url(#paint69_linear_12_14)"/>
<path d="M38.8454 161.474C36.6796 161.474 34.9235 160.189 34.9235 158.602C34.9235 157.016 36.6796 155.729 38.8454 155.729C41.0111 155.729 42.7699 157.014 42.7699 158.602C42.7673 160.187 41.0086 161.474 38.8454 161.474Z" fill="url(#paint70_linear_12_14)"/>
<path d="M444.562 573.918L431.501 576.311L428.234 585.884L424.968 576.311L411.904 573.918L424.968 571.527L428.234 561.956L431.501 571.527L444.562 573.918Z" fill="url(#paint71_linear_12_14)"/>
<path d="M139.907 706.565L118.131 710.553L112.689 726.504L107.246 710.553L85.4733 706.565L107.246 702.578L112.689 686.627L118.131 702.578L139.907 706.565Z" fill="url(#paint72_linear_12_14)"/>
<path d="M55.7209 805.195C53.7548 805.195 52.1599 804.029 52.1599 802.588C52.1599 801.148 53.7522 799.981 55.7209 799.981C57.687 799.981 59.2793 801.148 59.2793 802.588C59.2818 804.029 57.687 805.195 55.7209 805.195Z" fill="url(#paint73_linear_12_14)"/>
<path d="M137.244 631.635C140.282 631.635 142.746 629.83 142.746 627.604C142.746 625.378 140.282 623.574 137.244 623.574C134.206 623.574 131.743 625.378 131.743 627.604C131.743 629.83 134.206 631.635 137.244 631.635Z" fill="url(#paint74_linear_12_14)"/>
<path d="M383.158 744.893C380.959 744.893 379.174 743.586 379.174 741.974C379.174 740.363 380.959 739.056 383.158 739.056C385.357 739.056 387.141 740.363 387.141 741.974C387.138 743.586 385.357 744.893 383.158 744.893Z" fill="url(#paint75_linear_12_14)"/>
<path d="M381.458 775.61C378.319 775.61 375.775 773.746 375.775 771.448C375.775 769.149 378.319 767.283 381.458 767.283C384.596 767.283 387.141 769.147 387.141 771.448C387.141 773.748 384.594 775.61 381.458 775.61Z" fill="url(#paint76_linear_12_14)"/>
<path d="M296 842.14C293.947 842.14 292.283 840.92 292.283 839.416C292.283 837.913 293.947 836.695 296 836.695C298.053 836.695 299.717 837.913 299.717 839.416C299.717 840.92 298.053 842.14 296 842.14Z" fill="url(#paint77_linear_12_14)"/>
<path d="M294.052 560.554C296.017 560.554 297.61 559.387 297.61 557.947C297.61 556.507 296.017 555.34 294.052 555.34C292.087 555.34 290.493 556.507 290.493 557.947C290.493 559.387 292.087 560.554 294.052 560.554Z" fill="url(#paint78_linear_12_14)"/>
<path d="M216.65 555.642C214.484 555.642 212.728 554.357 212.728 552.767C212.728 551.182 214.484 549.894 216.65 549.894C218.816 549.894 220.572 551.179 220.572 552.767C220.572 554.357 218.816 555.642 216.65 555.642Z" fill="url(#paint79_linear_12_14)"/>
<path d="M193.687 834.721C191.634 834.721 189.97 833.5 189.97 831.997C189.97 830.493 191.634 829.275 193.687 829.275C195.74 829.275 197.404 830.493 197.404 831.997C197.404 833.5 195.74 834.721 193.687 834.721Z" fill="url(#paint80_linear_12_14)"/>
<path d="M191.739 910.303C193.704 910.303 195.297 909.136 195.297 907.696C195.297 906.256 193.704 905.089 191.739 905.089C189.774 905.089 188.18 906.256 188.18 907.696C188.18 909.136 189.774 910.303 191.739 910.303Z" fill="url(#paint81_linear_12_14)"/>
<path d="M114.335 905.391C112.169 905.391 110.413 904.106 110.413 902.516C110.413 900.931 112.169 899.644 114.335 899.644C116.5 899.644 118.257 900.929 118.257 902.516C118.257 904.104 116.5 905.391 114.335 905.391Z" fill="url(#paint82_linear_12_14)"/>
<path d="M116.247 523.553C118.212 523.553 119.805 522.386 119.805 520.946C119.805 519.506 118.212 518.339 116.247 518.339C114.282 518.339 112.689 519.506 112.689 520.946C112.689 522.386 114.282 523.553 116.247 523.553Z" fill="url(#paint83_linear_12_14)"/>
<path d="M38.8454 518.641C36.6796 518.641 34.9235 517.354 34.9235 515.768C34.9235 514.183 36.6796 512.896 38.8454 512.896C41.0111 512.896 42.7699 514.181 42.7699 515.768C42.7673 517.356 41.0086 518.641 38.8454 518.641Z" fill="url(#paint84_linear_12_14)"/>
<path d="M970.862 74.0268C973.171 74.0268 975.045 75.3984 975.045 77.0897C975.045 78.7809 973.174 80.1525 970.862 80.1525C968.553 80.1525 966.681 78.7809 966.681 77.0897C966.684 75.3984 968.555 74.0268 970.862 74.0268Z" fill="url(#paint85_linear_12_14)"/>
<path d="M1127.84 23.5627C1129.8 23.5627 1131.4 24.7291 1131.4 26.1698C1131.4 27.6105 1129.8 28.7769 1127.84 28.7769C1125.87 28.7769 1124.28 27.6105 1124.28 26.1698C1124.28 24.7291 1125.87 23.5627 1127.84 23.5627Z" fill="url(#paint86_linear_12_14)"/>
<path d="M1205.24 28.4745C1207.41 28.4745 1209.16 29.7597 1209.16 31.3495C1209.16 32.9349 1207.41 34.2223 1205.24 34.2223C1203.07 34.2223 1201.32 32.9371 1201.32 31.3495C1201.32 29.7619 1203.07 28.4745 1205.24 28.4745Z" fill="url(#paint87_linear_12_14)"/>
<path d="M1885.08 215.725L1872.01 218.118L1868.75 227.689L1865.48 218.118L1852.42 215.725L1865.48 213.332L1868.75 203.761L1872.01 213.332L1885.08 215.725Z" fill="url(#paint88_linear_12_14)"/>
<path d="M1580.42 313.939L1558.65 317.926L1553.2 333.878L1547.76 317.926L1525.98 313.939L1547.76 309.949L1553.2 294L1558.65 309.949L1580.42 313.939Z" fill="url(#paint89_linear_12_14)"/>
<path d="M1394.93 310.197C1392.62 310.197 1390.75 308.825 1390.75 307.134C1390.75 305.441 1392.62 304.071 1394.93 304.071C1397.24 304.071 1399.11 305.443 1399.11 307.134C1399.11 308.825 1397.24 310.197 1394.93 310.197Z" fill="url(#paint90_linear_12_14)"/>
<path d="M1496.24 447.003C1494.27 447.003 1492.67 445.836 1492.67 444.396C1492.67 442.955 1494.27 441.788 1496.24 441.788C1498.2 441.788 1499.79 442.955 1499.79 444.396C1499.79 445.836 1498.2 447.003 1496.24 447.003Z" fill="url(#paint91_linear_12_14)"/>
<path d="M1207.16 345.455C1205.42 345.455 1204.01 344.422 1204.01 343.15C1204.01 341.878 1205.42 340.847 1207.16 340.847C1208.89 340.847 1210.3 341.88 1210.3 343.15C1210.3 344.424 1208.89 345.455 1207.16 345.455Z" fill="url(#paint92_linear_12_14)"/>
<path d="M1577.76 273.442C1580.8 273.442 1583.26 271.638 1583.26 269.412C1583.26 267.186 1580.8 265.381 1577.76 265.381C1574.72 265.381 1572.26 267.186 1572.26 269.412C1572.26 271.638 1574.72 273.442 1577.76 273.442Z" fill="url(#paint93_linear_12_14)"/>
<path d="M1823.67 386.698C1821.47 386.698 1819.69 385.391 1819.69 383.779C1819.69 382.168 1821.47 380.863 1823.67 380.863C1825.87 380.863 1827.65 382.17 1827.65 383.779C1827.65 385.391 1825.87 386.698 1823.67 386.698Z" fill="url(#paint94_linear_12_14)"/>
<path d="M1821.97 417.417C1818.83 417.417 1816.29 415.553 1816.29 413.255C1816.29 410.957 1818.83 409.09 1821.97 409.09C1825.11 409.09 1827.65 410.954 1827.65 413.255C1827.65 415.555 1825.11 417.417 1821.97 417.417Z" fill="url(#paint95_linear_12_14)"/>
<path d="M1736.51 483.945C1734.46 483.945 1732.8 482.725 1732.8 481.221C1732.8 479.718 1734.46 478.5 1736.51 478.5C1738.57 478.5 1740.23 479.718 1740.23 481.221C1740.23 482.727 1738.57 483.945 1736.51 483.945Z" fill="url(#paint96_linear_12_14)"/>
<path d="M1290.36 442.4C1288.19 442.4 1286.43 441.112 1286.43 439.527C1286.43 437.941 1288.19 436.654 1290.36 436.654C1292.52 436.654 1294.28 437.941 1294.28 439.527C1294.28 441.114 1292.52 442.4 1290.36 442.4Z" fill="url(#paint97_linear_12_14)"/>
<path d="M1761.73 65.2442C1759.42 65.2442 1757.55 63.8726 1757.55 62.1813C1757.55 60.4901 1759.42 59.1185 1761.73 59.1185C1764.04 59.1185 1765.91 60.4901 1765.91 62.1813C1765.91 63.8726 1764.04 65.2442 1761.73 65.2442Z" fill="url(#paint98_linear_12_14)"/>
<path d="M1573.96 100.504C1572.22 100.504 1570.82 99.4716 1570.82 98.1993C1570.82 96.9271 1572.22 95.8946 1573.96 95.8946C1575.7 95.8946 1577.11 96.9271 1577.11 98.1993C1577.11 99.4716 1575.7 100.504 1573.96 100.504Z" fill="url(#paint99_linear_12_14)"/>
<path d="M1556.76 165.36C1558.73 165.36 1560.32 164.193 1560.32 162.753C1560.32 161.313 1558.73 160.146 1556.76 160.146C1554.8 160.146 1553.2 161.313 1553.2 162.753C1553.2 164.193 1554.8 165.36 1556.76 165.36Z" fill="url(#paint100_linear_12_14)"/>
<path d="M1396.16 63.5032C1394.42 63.5032 1393.01 62.4708 1393.01 61.1985C1393.01 59.9263 1394.42 58.896 1396.16 58.896C1397.9 58.896 1399.3 59.9284 1399.3 61.1985C1399.3 62.4708 1397.89 63.5032 1396.16 63.5032Z" fill="url(#paint101_linear_12_14)"/>
<path d="M1479.36 160.448C1477.19 160.448 1475.44 159.161 1475.44 157.576C1475.44 155.988 1477.19 154.703 1479.36 154.703C1481.52 154.703 1483.28 155.988 1483.28 157.576C1483.28 159.161 1481.52 160.448 1479.36 160.448Z" fill="url(#paint102_linear_12_14)"/>
<path d="M1313.1 388.387C1311.13 388.387 1309.54 387.22 1309.54 385.78C1309.54 384.339 1311.13 383.172 1313.1 383.172C1315.06 383.172 1316.66 384.339 1316.66 385.78C1316.66 387.22 1315.06 388.387 1313.1 388.387Z" fill="url(#paint103_linear_12_14)"/>
<path d="M1389.95 175.92C1387.64 175.92 1385.77 174.549 1385.77 172.858C1385.77 171.166 1387.64 169.795 1389.95 169.795C1392.26 169.795 1394.13 171.166 1394.13 172.858C1394.13 174.549 1392.26 175.92 1389.95 175.92Z" fill="url(#paint104_linear_12_14)"/>
<path d="M1885.08 572.892L1872.01 575.285L1868.75 584.856L1865.48 575.285L1852.42 572.892L1865.48 570.501L1868.75 560.93L1872.01 570.501L1885.08 572.892Z" fill="url(#paint105_linear_12_14)"/>
<path d="M1580.42 705.54L1558.65 709.527L1553.2 725.479L1547.76 709.527L1525.99 705.54L1547.76 701.552L1553.2 685.601L1558.65 701.552L1580.42 705.54Z" fill="url(#paint106_linear_12_14)"/>
<path d="M1394.93 667.364C1392.62 667.364 1390.75 665.992 1390.75 664.301C1390.75 662.607 1392.62 661.238 1394.93 661.238C1397.24 661.238 1399.11 662.607 1399.11 664.301C1399.11 665.992 1397.24 667.364 1394.93 667.364Z" fill="url(#paint107_linear_12_14)"/>
<path d="M1496.24 804.169C1494.27 804.169 1492.67 803.003 1492.67 801.562C1492.67 800.122 1494.27 798.955 1496.24 798.955C1498.2 798.955 1499.79 800.122 1499.79 801.562C1499.79 803.003 1498.2 804.169 1496.24 804.169Z" fill="url(#paint108_linear_12_14)"/>
<path d="M1207.16 702.624C1205.42 702.624 1204.01 701.591 1204.01 700.319C1204.01 699.047 1205.42 698.016 1207.16 698.016C1208.89 698.016 1210.3 699.047 1210.3 700.319C1210.3 701.591 1208.89 702.624 1207.16 702.624Z" fill="url(#paint109_linear_12_14)"/>
<path d="M1196.39 508.496C1194.28 508.496 1192.57 507.245 1192.57 505.703C1192.57 504.161 1194.28 502.91 1196.39 502.91C1198.49 502.91 1200.2 504.161 1200.2 505.703C1200.2 507.247 1198.49 508.496 1196.39 508.496Z" fill="url(#paint110_linear_12_14)"/>
<path d="M1577.76 630.611C1574.72 630.611 1572.25 628.805 1572.25 626.581C1572.25 624.354 1574.72 622.55 1577.76 622.55C1580.8 622.55 1583.26 624.356 1583.26 626.581C1583.26 628.805 1580.8 630.611 1577.76 630.611Z" fill="url(#paint111_linear_12_14)"/>
<path d="M1823.67 743.867C1821.47 743.867 1819.69 742.56 1819.69 740.948C1819.69 739.337 1821.47 738.032 1823.67 738.032C1825.87 738.032 1827.65 739.339 1827.65 740.948C1827.65 742.56 1825.87 743.867 1823.67 743.867Z" fill="url(#paint112_linear_12_14)"/>
<path d="M1821.97 774.584C1818.83 774.584 1816.29 772.72 1816.29 770.419C1816.29 768.119 1818.83 766.255 1821.97 766.255C1825.11 766.255 1827.65 768.119 1827.65 770.419C1827.65 772.72 1825.11 774.584 1821.97 774.584Z" fill="url(#paint113_linear_12_14)"/>
<path d="M1736.51 841.114C1734.46 841.114 1732.8 839.894 1732.8 838.39C1732.8 836.887 1734.46 835.669 1736.51 835.669C1738.57 835.669 1740.23 836.887 1740.23 838.39C1740.23 839.894 1738.57 841.114 1736.51 841.114Z" fill="url(#paint114_linear_12_14)"/>
<path d="M1290.36 799.569C1288.19 799.569 1286.43 798.283 1286.43 796.696C1286.43 795.11 1288.19 793.823 1290.36 793.823C1292.52 793.823 1294.28 795.108 1294.28 796.696C1294.28 798.281 1292.52 799.569 1290.36 799.569Z" fill="url(#paint115_linear_12_14)"/>
<path d="M1634.2 833.694C1632.15 833.694 1630.48 832.474 1630.48 830.971C1630.48 829.467 1632.15 828.249 1634.2 828.249C1636.25 828.249 1637.92 829.467 1637.92 830.971C1637.92 832.474 1636.25 833.694 1634.2 833.694Z" fill="url(#paint116_linear_12_14)"/>
<path d="M1632.25 909.277C1630.29 909.277 1628.69 908.111 1628.69 906.67C1628.69 905.229 1630.29 904.063 1632.25 904.063C1634.22 904.063 1635.81 905.229 1635.81 906.67C1635.81 908.109 1634.22 909.277 1632.25 909.277Z" fill="url(#paint117_linear_12_14)"/>
<path d="M1400.2 824.365C1398.14 824.365 1396.48 823.145 1396.48 821.642C1396.48 820.138 1398.14 818.92 1400.2 818.92C1402.25 818.92 1403.91 820.138 1403.91 821.642C1403.91 823.145 1402.25 824.365 1400.2 824.365Z" fill="url(#paint118_linear_12_14)"/>
<path d="M1398.25 899.946C1400.21 899.946 1401.81 898.779 1401.81 897.339C1401.81 895.899 1400.21 894.732 1398.25 894.732C1396.28 894.732 1394.69 895.899 1394.69 897.339C1394.69 898.779 1396.28 899.946 1398.25 899.946Z" fill="url(#paint119_linear_12_14)"/>
<path d="M1178.23 909.277C1176.26 909.277 1174.67 908.111 1174.67 906.67C1174.67 905.229 1176.26 904.063 1178.23 904.063C1180.2 904.063 1181.79 905.229 1181.79 906.67C1181.79 908.109 1180.2 909.277 1178.23 909.277Z" fill="url(#paint120_linear_12_14)"/>
<path d="M1554.85 904.365C1552.68 904.365 1550.93 903.08 1550.93 901.49C1550.93 899.905 1552.68 898.618 1554.85 898.618C1557.01 898.618 1558.77 899.903 1558.77 901.49C1558.77 903.078 1557.01 904.365 1554.85 904.365Z" fill="url(#paint121_linear_12_14)"/>
<path d="M1556.76 522.527C1554.8 522.527 1553.2 521.361 1553.2 519.92C1553.2 518.479 1554.8 517.313 1556.76 517.313C1558.73 517.313 1560.32 518.479 1560.32 519.92C1560.32 521.361 1558.73 522.527 1556.76 522.527Z" fill="url(#paint122_linear_12_14)"/>
<path d="M1479.36 517.615C1477.19 517.615 1475.44 516.328 1475.44 514.742C1475.44 513.157 1477.19 511.87 1479.36 511.87C1481.52 511.87 1483.28 513.155 1483.28 514.742C1483.28 516.33 1481.52 517.615 1479.36 517.615Z" fill="url(#paint123_linear_12_14)"/>
<path d="M1313.1 745.556C1311.13 745.556 1309.54 744.389 1309.54 742.949C1309.54 741.508 1311.13 740.341 1313.1 740.341C1315.06 740.341 1316.66 741.508 1316.66 742.949C1316.65 744.387 1315.06 745.556 1313.1 745.556Z" fill="url(#paint124_linear_12_14)"/>
<path d="M1389.95 533.087C1387.64 533.087 1385.77 531.716 1385.77 530.024C1385.77 528.333 1387.64 526.961 1389.95 526.961C1392.26 526.961 1394.13 528.333 1394.13 530.024C1394.13 531.718 1392.26 533.087 1389.95 533.087Z" fill="url(#paint125_linear_12_14)"/>
<path d="M1232.97 583.551C1231.01 583.551 1229.41 582.385 1229.41 580.944C1229.41 579.503 1231.01 578.337 1232.97 578.337C1234.94 578.337 1236.53 579.503 1236.53 580.944C1236.53 582.385 1234.94 583.551 1232.97 583.551Z" fill="url(#paint126_linear_12_14)"/>
<path d="M66.7438 142.61C57.0999 152.687 63.8149 168.641 72.2043 172H208.467C214.98 171.162 228.157 157.826 222.712 142.61C217.267 127.394 199.159 131.232 201.748 128.335C204.338 125.438 196.244 101.857 172.829 107.342C163.32 93.4262 156.467 85.9295 140.116 85.0896C123.764 84.2498 114.688 89.2291 102.8 103.563C99.8655 104.823 86.4489 101.044 75.1286 112.38C64.1232 123.401 71.0954 138.063 66.7438 142.61Z" fill="#F9F4F4"/>
<path d="M576.657 119.607C565.156 131.607 573.164 150.607 583.169 154.607H745.669C753.436 153.609 769.15 137.727 762.656 119.607C756.163 101.486 734.568 106.056 737.656 102.607C740.745 99.1574 731.092 71.0743 703.169 77.6067C691.829 61.0347 683.656 52.1069 664.156 51.1067C644.656 50.1066 633.833 56.0363 619.656 73.1067C616.156 74.6067 600.156 70.1067 586.656 83.6067C573.532 96.7311 581.847 114.192 576.657 119.607Z" fill="#F9F4F4" fill-opacity="0.6"/>
<path d="M56.8024 678.272C47.0394 688.465 53.8373 704.603 62.3303 708H200.276C206.869 707.152 220.209 693.663 214.696 678.272C209.184 662.881 190.852 666.763 193.474 663.833C196.095 660.903 187.901 637.05 164.198 642.599C154.571 628.523 147.633 620.94 131.08 620.091C114.526 619.241 105.338 624.278 93.3041 638.777C90.3329 640.051 76.7507 636.229 65.2906 647.695C54.1494 658.842 61.2077 673.673 56.8024 678.272Z" fill="#F9F4F4" fill-opacity="0.4"/>
<path d="M1654.66 692.607C1643.16 704.607 1651.16 723.607 1661.17 727.607H1823.67C1831.44 726.609 1847.15 710.727 1840.66 692.607C1834.16 674.486 1812.57 679.056 1815.66 675.607C1818.74 672.157 1809.09 644.074 1781.17 650.607C1769.83 634.035 1761.66 625.107 1742.16 624.107C1722.66 623.107 1711.83 629.036 1697.66 646.107C1694.16 647.607 1678.16 643.107 1664.66 656.607C1651.53 669.731 1659.85 687.192 1654.66 692.607Z" fill="#F9F4F4" fill-opacity="0.6"/>
<path d="M1108.66 153.607C1097.16 165.607 1105.16 184.607 1115.17 188.607H1277.67C1285.44 187.609 1301.15 171.727 1294.66 153.607C1288.16 135.486 1266.57 140.056 1269.66 136.607C1272.74 133.157 1263.09 105.074 1235.17 111.607C1223.83 95.0347 1215.66 86.1069 1196.16 85.1067C1176.66 84.1066 1165.83 90.0363 1151.66 107.107C1148.16 108.607 1132.16 104.107 1118.66 117.607C1105.53 130.731 1113.85 148.192 1108.66 153.607Z" fill="#F9F4F4" fill-opacity="0.6"/>
<path d="M1173.66 176.607C1162.16 188.607 1170.16 207.607 1180.17 211.607H1342.67C1350.44 210.609 1366.15 194.727 1359.66 176.607C1353.16 158.486 1331.57 163.056 1334.66 159.607C1337.74 156.157 1328.09 128.074 1300.17 134.607C1288.83 118.035 1280.66 109.107 1261.16 108.107C1241.66 107.107 1230.83 113.036 1216.66 130.107C1213.16 131.607 1197.16 127.107 1183.66 140.607C1170.53 153.731 1178.85 171.192 1173.66 176.607Z" fill="#F9F4F4" fill-opacity="0.77"/>
<path d="M1298.66 775.607C1287.16 787.607 1295.16 806.607 1305.17 810.607H1467.67C1475.44 809.609 1491.15 793.727 1484.66 775.607C1478.16 757.486 1456.57 762.056 1459.66 758.607C1462.74 755.157 1453.09 727.074 1425.17 733.607C1413.83 717.035 1405.66 708.107 1386.16 707.107C1366.66 706.107 1355.83 712.036 1341.66 729.107C1338.16 730.607 1322.16 726.107 1308.66 739.607C1295.53 752.731 1303.85 770.192 1298.66 775.607Z" fill="#F9F4F4" fill-opacity="0.4"/>
<path d="M481.657 612.607C470.156 624.607 478.164 643.607 488.169 647.607H650.669C658.436 646.609 674.15 630.727 667.656 612.607C661.163 594.486 639.568 599.056 642.656 595.607C645.745 592.157 636.092 564.074 608.169 570.607C596.829 554.035 588.656 545.107 569.156 544.107C549.656 543.107 538.833 549.036 524.656 566.107C521.156 567.607 505.156 563.107 491.656 576.607C478.532 589.731 486.847 607.192 481.657 612.607Z" fill="#F9F4F4" fill-opacity="0.6"/>
<path opacity="0.5" fill-rule="evenodd" clip-rule="evenodd" d="M1610.57 372.364C1604.16 370.418 1599.38 373.505 1598.23 378.749C1595.18 377.115 1591.04 378.606 1591.51 381.08C1583.88 379.042 1578.69 382.281 1577.88 387.582C1570.87 387.644 1571.51 392.463 1576.86 392.463H1673C1677.45 392.463 1679.12 387.656 1672.57 387.667C1672.33 382.995 1665.03 379.238 1660.28 381.581C1661.12 377.507 1655.76 372.414 1649.76 372.572C1645.07 356.888 1617.4 356.608 1610.57 372.364Z" fill="#D9D9D9" fill-opacity="0.4"/>
<path d="M1498.66 423.606C1487.16 435.606 1495.16 454.606 1505.17 458.606H1667.67C1675.44 457.608 1691.15 441.727 1684.66 423.606C1678.16 405.486 1656.57 410.056 1659.66 406.607C1662.74 403.157 1653.09 375.074 1625.17 381.606C1613.83 365.034 1605.66 356.107 1586.16 355.106C1566.66 354.106 1555.83 360.036 1541.66 377.106C1538.16 378.606 1522.16 374.106 1508.66 387.606C1495.53 400.731 1503.85 418.192 1498.66 423.606Z" fill="#F9F4F4" fill-opacity="0.4"/>
<path opacity="0.5" fill-rule="evenodd" clip-rule="evenodd" d="M1775.88 74.2992C1769.47 72.354 1764.69 75.4402 1763.54 80.6844C1760.49 79.0508 1756.35 80.5412 1756.82 83.0157C1749.19 80.9776 1744 84.2166 1743.19 89.5179C1736.18 89.5799 1736.82 94.3982 1742.18 94.3982H1838.31C1842.76 94.3982 1844.43 89.5915 1837.88 89.6021C1837.64 84.9308 1830.35 81.174 1825.59 83.5169C1826.43 79.4427 1821.07 74.3495 1815.07 74.5073C1810.38 58.8231 1782.71 58.5434 1775.88 74.2992Z" fill="#D9D9D9" fill-opacity="0.6"/>
<path d="M1664.66 125.606C1653.16 137.606 1661.16 156.606 1671.17 160.606H1833.67C1841.44 159.608 1857.15 143.727 1850.66 125.606C1844.16 107.486 1822.57 112.056 1825.66 108.607C1828.74 105.157 1819.09 77.074 1791.17 83.6065C1779.83 67.0344 1771.66 58.1066 1752.16 57.1065C1732.66 56.1063 1721.83 62.036 1707.66 79.1065C1704.16 80.6065 1688.16 76.1065 1674.66 89.6065C1661.53 102.731 1669.85 120.192 1664.66 125.606Z" fill="#F9F4F4" fill-opacity="0.6"/>
<path opacity="0.5" fill-rule="evenodd" clip-rule="evenodd" d="M295.215 347.232C287.381 344.863 281.544 348.621 280.132 355.008C276.413 353.019 271.347 354.834 271.927 357.847C262.604 355.365 256.255 359.31 255.274 365.766C246.699 365.841 247.49 371.709 254.029 371.709H371.499C376.937 371.709 378.982 365.855 370.973 365.868C370.689 360.179 361.771 355.604 355.963 358.458C356.99 353.496 350.44 347.293 343.101 347.485C337.378 328.385 303.557 328.044 295.215 347.232Z" fill="#D9D9D9" fill-opacity="0.6"/>
<path d="M178.657 406.703C167.156 418.703 175.164 437.703 185.169 441.703H347.669C355.436 440.705 371.15 424.824 364.656 406.703C358.163 388.582 336.568 393.153 339.656 389.703C342.745 386.254 333.092 358.17 305.169 364.703C293.829 348.131 285.656 339.203 266.156 338.203C246.656 337.203 235.833 343.133 221.656 360.203C218.156 361.703 202.156 357.203 188.656 370.703C175.532 383.827 183.847 401.288 178.657 406.703Z" fill="#F9F4F4" fill-opacity="0.6"/>
<g clip-path="url(#clip2_12_14)">
<g clip-path="url(#clip3_12_14)">
<path opacity="0.33" d="M801.445 1017.39C-373.284 826.666 -714.353 1090.83 -1043.9 1017.39C-1543.4 905.506 -1923.65 1033.81 -1923.65 1033.81V1162.76L3837.65 1162.76V1033.81C3837.65 1033.81 3479.87 977.434 3290.9 970.522C3101.93 963.394 2929.09 997.09 2854.2 1018.26C2719.96 1055.63 2370.25 1143.97 2079.88 1152.61C1789.51 1161.25 913.214 1035.32 801.445 1017.39Z" fill="white"/>
<path opacity="0.66" d="M2305.14 1017.39C2043 1017.39 1860.37 1067.51 1561.36 1101.85C1396.59 1120.64 695.437 1123.67 97.9901 1017.39C-499.457 911.122 -430.321 1091.7 -761.596 1017.39C-1257.07 907.234 -1923.65 1076.79 -1923.65 1076.79V1162.76L3837.65 1162.76V1083.92C3837.65 1083.92 3675.18 1123.88 3307.03 1123.88C2744.16 1123.67 2545.39 1017.39 2305.14 1017.39Z" fill="white"/>
<path d="M2490.08 1100.34C1337.82 1224.54 957.576 958.858 213.792 1058.22C-529.415 1158.87 -529.415 1151.1 -858.962 1118.27C-1186.2 1085.43 -1161.43 1065.78 -1405.71 1049.36C-1758.88 1025.17 -1923.65 1162.76 -1923.65 1162.76L3837.65 1162.76C3837.65 1162.76 3780.61 1074.42 3356.01 1058.87C2931.4 1043.31 2855.92 1061.24 2490.08 1100.34Z" fill="white"/>
</g>
</g>
<mask id="mask0_12_14" style="mask-type:luminance" maskUnits="userSpaceOnUse" x="-3" y="832" width="1920" height="382">
<path d="M1917 832H-3V1213.49H1917V832Z" fill="white"/>
</mask>
<g mask="url(#mask0_12_14)">
<path d="M1917 919.906C1917 914.193 1903.52 915.901 1677.23 915.348C1471.01 914.844 1059.37 904.32 810.499 905.845C561.461 907.37 298.256 901.494 145.282 902.896C36.3817 903.894 0.930399 919.906 0.930399 919.906L-3 1067.92C-3 1067.92 145.132 1087.43 369.165 1084.38C593.198 1081.33 820.42 1105.07 1005.15 1102.02C1189.88 1098.97 1391.84 1075.87 1552.98 1071.29C1714.13 1066.72 1917 1067.92 1917 1067.92C1917 1067.92 1917 939.743 1917 919.906Z" fill="#F3E2FF" fill-opacity="0.5"/>
<path d="M2236.63 919.911C2236.63 914.198 2190.24 867.402 1926.28 866.849C1685.73 866.344 1392.21 955.108 1101.91 956.633C811.411 958.158 416.679 849.273 238.239 850.674C111.209 851.672 -0.128046 872.024 -0.128046 872.024L-3 1067.93C-3 1067.93 184.556 1051.07 445.885 1048.02C707.214 1044.96 972.914 1140.53 1188.4 1137.48C1403.88 1134.43 1636.01 1082.31 1823.98 1077.73C2011.96 1073.15 2236.63 1067.93 2236.63 1067.93C2236.63 1067.93 2236.63 939.748 2236.63 919.911Z" fill="#F3E2FF" fill-opacity="0.5"/>
<g opacity="0.26">
<path d="M2.59541 834.915C-222.045 820.632 -446.685 863.481 -446.685 863.481C-446.685 863.481 -596.445 873.003 -789.885 873.003C-879.226 873.003 -814.845 963.461 -658.845 1053.92C-502.845 1144.38 -496.605 1092.01 -315.645 1068.2C-134.685 1044.4 -84.7646 1034.88 308.355 1011.07C701.475 987.266 464.355 1001.55 720.195 1006.31C976.035 1011.07 951.075 1049.16 1200.68 1077.72C1450.28 1106.29 1500.2 1087.25 1712.36 1053.92C1924.52 1020.59 1974.44 1006.31 2192.84 1001.55C2411.24 996.788 2448.68 1063.44 2654.6 1111.05C2860.52 1158.66 2873 1115.81 3041.48 1092.01C3209.96 1068.2 3203.72 1053.92 3359.72 1049.16C3515.72 1044.4 3590.6 1077.72 3740.36 1077.72C3890.12 1077.72 3815.47 1064.17 4033.88 1092.74C4252.28 1121.31 4270.76 1092.01 4420.52 1082.48C4570.28 1072.96 4695.08 1058.68 4882.28 1044.4C5069.48 1030.11 4960.2 993.614 5216.03 1036.46C5471.88 1079.31 5843.24 1058.68 6067.88 1115.81C6292.52 1172.94 6298.76 1106.29 6361.16 1068.2C6423.56 1030.11 6442.28 939.656 6348.68 906.329C6255.08 873.003 6261.32 887.285 5986.76 934.895C5712.2 982.505 5812.04 939.656 5581.16 896.807C5350.28 853.959 5468.84 873.003 5281.64 896.807C5094.44 920.612 4894.76 949.178 4695.08 906.329C4495.4 863.481 4401.8 825.393 4252.04 853.959C4102.28 882.524 4014.92 934.895 3759.08 949.178C3503.24 963.461 3328.52 849.198 3103.88 901.568C2879.24 953.939 2854.28 953.939 2561 911.09C2267.72 868.242 2086.76 858.72 1868.36 896.807C1649.96 934.895 1331.72 911.09 1132.04 901.568C932.355 892.046 795.075 839.676 401.955 863.481C8.83537 887.285 227.235 849.198 2.59541 834.915Z" fill="#F3E2FF"/>
</g>
</g>
</g>
</g>
<defs>
<linearGradient id="paint0_linear_12_14" x1="1015.5" y1="2.96936e-05" x2="1180.22" y2="1054.26" gradientUnits="userSpaceOnUse">
<stop stop-color="#C3C2FF" stop-opacity="0.55"/>
<stop offset="0.514891" stop-color="#6764FF" stop-opacity="0.88"/>
<stop offset="0.9971" stop-color="#6764FF"/>
</linearGradient>
<linearGradient id="paint1_linear_12_14" x1="624.296" y1="-99.5933" x2="624.296" y2="962.847" gradientUnits="userSpaceOnUse">
<stop stop-color="white"/>
<stop offset="1" stop-color="white" stop-opacity="0"/>
</linearGradient>
<linearGradient id="paint2_linear_12_14" x1="726.611" y1="-99.5794" x2="726.611" y2="962.847" gradientUnits="userSpaceOnUse">
<stop stop-color="white"/>
<stop offset="1" stop-color="white" stop-opacity="0"/>
</linearGradient>
<linearGradient id="paint3_linear_12_14" x1="728.559" y1="-99.6148" x2="728.559" y2="962.849" gradientUnits="userSpaceOnUse">
<stop stop-color="white"/>
<stop offset="1" stop-color="white" stop-opacity="0"/>
</linearGradient>
<linearGradient id="paint4_linear_12_14" x1="960.614" y1="-99.6239" x2="960.614" y2="962.848" gradientUnits="userSpaceOnUse">
<stop stop-color="white"/>
<stop offset="1" stop-color="white" stop-opacity="0"/>
</linearGradient>
<linearGradient id="paint5_linear_12_14" x1="962.562" y1="-99.615" x2="962.562" y2="962.848" gradientUnits="userSpaceOnUse">
<stop stop-color="white"/>
<stop offset="1" stop-color="white" stop-opacity="0"/>
</linearGradient>
<linearGradient id="paint6_linear_12_14" x1="1182.58" y1="-99.6148" x2="1182.58" y2="962.849" gradientUnits="userSpaceOnUse">
<stop stop-color="white"/>
<stop offset="1" stop-color="white" stop-opacity="0"/>
</linearGradient>
<linearGradient id="paint7_linear_12_14" x1="805.961" y1="-99.6014" x2="805.961" y2="962.847" gradientUnits="userSpaceOnUse">
<stop stop-color="white"/>
<stop offset="1" stop-color="white" stop-opacity="0"/>
</linearGradient>
<linearGradient id="paint8_linear_12_14" x1="392.174" y1="-99.6037" x2="392.174" y2="962.847" gradientUnits="userSpaceOnUse">
<stop stop-color="white"/>
<stop offset="1" stop-color="white" stop-opacity="0"/>
</linearGradient>
<linearGradient id="paint9_linear_12_14" x1="279.278" y1="-99.6227" x2="279.278" y2="962.849" gradientUnits="userSpaceOnUse">
<stop stop-color="white"/>
<stop offset="1" stop-color="white" stop-opacity="0"/>
</linearGradient>
<linearGradient id="paint10_linear_12_14" x1="362.481" y1="-99.6036" x2="362.481" y2="962.848" gradientUnits="userSpaceOnUse">
<stop stop-color="white"/>
<stop offset="1" stop-color="white" stop-opacity="0"/>
</linearGradient>
<linearGradient id="paint11_linear_12_14" x1="1832.69" y1="-99.6117" x2="1832.69" y2="962.848" gradientUnits="userSpaceOnUse">
<stop stop-color="white"/>
<stop offset="1" stop-color="white" stop-opacity="0"/>
</linearGradient>
<linearGradient id="paint12_linear_12_14" x1="1369.15" y1="-99.5952" x2="1369.15" y2="962.848" gradientUnits="userSpaceOnUse">
<stop stop-color="white"/>
<stop offset="1" stop-color="white" stop-opacity="0"/>
</linearGradient>
<linearGradient id="paint13_linear_12_14" x1="1181.38" y1="-99.6035" x2="1181.38" y2="962.848" gradientUnits="userSpaceOnUse">
<stop stop-color="white"/>
<stop offset="1" stop-color="white" stop-opacity="0"/>
</linearGradient>
<linearGradient id="paint14_linear_12_14" x1="1719.79" y1="-99.6227" x2="1719.79" y2="962.849" gradientUnits="userSpaceOnUse">
<stop stop-color="white"/>
<stop offset="1" stop-color="white" stop-opacity="0"/>
</linearGradient>
<linearGradient id="paint15_linear_12_14" x1="1803" y1="-99.6038" x2="1803" y2="962.848" gradientUnits="userSpaceOnUse">
<stop stop-color="white"/>
<stop offset="1" stop-color="white" stop-opacity="0"/>
</linearGradient>
<linearGradient id="paint16_linear_12_14" x1="492.064" y1="-99.6075" x2="492.064" y2="962.848" gradientUnits="userSpaceOnUse">
<stop stop-color="white"/>
<stop offset="1" stop-color="white" stop-opacity="0"/>
</linearGradient>
<linearGradient id="paint17_linear_12_14" x1="1309.07" y1="-99.6022" x2="1309.07" y2="962.844" gradientUnits="userSpaceOnUse">
<stop stop-color="white"/>
<stop offset="1" stop-color="white" stop-opacity="0"/>
</linearGradient>
<linearGradient id="paint18_linear_12_14" x1="528.123" y1="-99.6069" x2="528.123" y2="962.849" gradientUnits="userSpaceOnUse">
<stop stop-color="white"/>
<stop offset="1" stop-color="white" stop-opacity="0"/>
</linearGradient>
<linearGradient id="paint19_linear_12_14" x1="667.81" y1="-74.4105" x2="667.81" y2="988.047" gradientUnits="userSpaceOnUse">
<stop stop-color="white"/>
<stop offset="1" stop-color="white" stop-opacity="0"/>
</linearGradient>
<linearGradient id="paint20_linear_12_14" x1="860.495" y1="-99.5925" x2="860.495" y2="962.844" gradientUnits="userSpaceOnUse">
<stop stop-color="white"/>
<stop offset="1" stop-color="white" stop-opacity="0"/>
</linearGradient>
<linearGradient id="paint21_linear_12_14" x1="965.883" y1="-99.6061" x2="965.883" y2="962.85" gradientUnits="userSpaceOnUse">
<stop stop-color="white"/>
<stop offset="1" stop-color="white" stop-opacity="0"/>
</linearGradient>
<linearGradient id="paint22_linear_12_14" x1="864.576" y1="-99.6093" x2="864.576" y2="962.861" gradientUnits="userSpaceOnUse">
<stop stop-color="white"/>
<stop offset="1" stop-color="white" stop-opacity="0"/>
</linearGradient>
<linearGradient id="paint23_linear_12_14" x1="1153.66" y1="-99.6136" x2="1153.66" y2="962.864" gradientUnits="userSpaceOnUse">
<stop stop-color="white"/>
<stop offset="1" stop-color="white" stop-opacity="0"/>
</linearGradient>
<linearGradient id="paint24_linear_12_14" x1="1164.43" y1="-99.5979" x2="1164.43" y2="962.841" gradientUnits="userSpaceOnUse">
<stop stop-color="white"/>
<stop offset="1" stop-color="white" stop-opacity="0"/>
</linearGradient>
<linearGradient id="paint25_linear_12_14" x1="783.054" y1="-99.6017" x2="783.054" y2="962.843" gradientUnits="userSpaceOnUse">
<stop stop-color="white"/>
<stop offset="1" stop-color="white" stop-opacity="0"/>
</linearGradient>
<linearGradient id="paint26_linear_12_14" x1="537.141" y1="-99.6007" x2="537.141" y2="962.839" gradientUnits="userSpaceOnUse">
<stop stop-color="white"/>
<stop offset="1" stop-color="white" stop-opacity="0"/>
</linearGradient>
<linearGradient id="paint27_linear_12_14" x1="538.841" y1="-99.6014" x2="538.841" y2="962.837" gradientUnits="userSpaceOnUse">
<stop stop-color="white"/>
<stop offset="1" stop-color="white" stop-opacity="0"/>
</linearGradient>
<linearGradient id="paint28_linear_12_14" x1="624.296" y1="-99.608" x2="624.296" y2="962.858" gradientUnits="userSpaceOnUse">
<stop stop-color="white"/>
<stop offset="1" stop-color="white" stop-opacity="0"/>
</linearGradient>
<linearGradient id="paint29_linear_12_14" x1="1070.45" y1="-99.6023" x2="1070.45" y2="962.851" gradientUnits="userSpaceOnUse">
<stop stop-color="white"/>
<stop offset="1" stop-color="white" stop-opacity="0"/>
</linearGradient>
<linearGradient id="paint30_linear_12_14" x1="991.663" y1="-99.608" x2="991.663" y2="962.848" gradientUnits="userSpaceOnUse">
<stop stop-color="white"/>
<stop offset="1" stop-color="white" stop-opacity="0"/>
</linearGradient>
<linearGradient id="paint31_linear_12_14" x1="1018.83" y1="-99.6047" x2="1018.83" y2="962.847" gradientUnits="userSpaceOnUse">
<stop stop-color="white"/>
<stop offset="1" stop-color="white" stop-opacity="0"/>
</linearGradient>
<linearGradient id="paint32_linear_12_14" x1="1179.44" y1="-99.6234" x2="1179.44" y2="962.85" gradientUnits="userSpaceOnUse">
<stop stop-color="white"/>
<stop offset="1" stop-color="white" stop-opacity="0"/>
</linearGradient>
<linearGradient id="paint33_linear_12_14" x1="1096.23" y1="-99.6075" x2="1096.23" y2="962.849" gradientUnits="userSpaceOnUse">
<stop stop-color="white"/>
<stop offset="1" stop-color="white" stop-opacity="0"/>
</linearGradient>
<linearGradient id="paint34_linear_12_14" x1="562.289" y1="-99.6122" x2="562.289" y2="962.851" gradientUnits="userSpaceOnUse">
<stop stop-color="white"/>
<stop offset="1" stop-color="white" stop-opacity="0"/>
</linearGradient>
<linearGradient id="paint35_linear_12_14" x1="722.894" y1="-99.6044" x2="722.894" y2="962.847" gradientUnits="userSpaceOnUse">
<stop stop-color="white"/>
<stop offset="1" stop-color="white" stop-opacity="0"/>
</linearGradient>
<linearGradient id="paint36_linear_12_14" x1="639.692" y1="-99.5862" x2="639.692" y2="962.84" gradientUnits="userSpaceOnUse">
<stop stop-color="white"/>
<stop offset="1" stop-color="white" stop-opacity="0"/>
</linearGradient>
<linearGradient id="paint37_linear_12_14" x1="599.078" y1="-99.5956" x2="599.078" y2="962.842" gradientUnits="userSpaceOnUse">
<stop stop-color="white"/>
<stop offset="1" stop-color="white" stop-opacity="0"/>
</linearGradient>
<linearGradient id="paint38_linear_12_14" x1="626.245" y1="-99.604" x2="626.245" y2="962.847" gradientUnits="userSpaceOnUse">
<stop stop-color="white"/>
<stop offset="1" stop-color="white" stop-opacity="0"/>
</linearGradient>
<linearGradient id="paint39_linear_12_14" x1="786.85" y1="-99.6004" x2="786.85" y2="962.844" gradientUnits="userSpaceOnUse">
<stop stop-color="white"/>
<stop offset="1" stop-color="white" stop-opacity="0"/>
</linearGradient>
<linearGradient id="paint40_linear_12_14" x1="703.647" y1="-99.6145" x2="703.647" y2="962.858" gradientUnits="userSpaceOnUse">
<stop stop-color="white"/>
<stop offset="1" stop-color="white" stop-opacity="0"/>
</linearGradient>
<linearGradient id="paint41_linear_12_14" x1="641.019" y1="-99.6012" x2="641.019" y2="962.848" gradientUnits="userSpaceOnUse">
<stop stop-color="white"/>
<stop offset="1" stop-color="white" stop-opacity="0"/>
</linearGradient>
<linearGradient id="paint42_linear_12_14" x1="557.816" y1="-99.627" x2="557.816" y2="962.852" gradientUnits="userSpaceOnUse">
<stop stop-color="white"/>
<stop offset="1" stop-color="white" stop-opacity="0"/>
</linearGradient>
<linearGradient id="paint43_linear_12_14" x1="964.655" y1="-99.6197" x2="964.655" y2="962.857" gradientUnits="userSpaceOnUse">
<stop stop-color="white"/>
<stop offset="1" stop-color="white" stop-opacity="0"/>
</linearGradient>
<linearGradient id="paint44_linear_12_14" x1="722.174" y1="-99.5976" x2="722.174" y2="962.844" gradientUnits="userSpaceOnUse">
<stop stop-color="white"/>
<stop offset="1" stop-color="white" stop-opacity="0"/>
</linearGradient>
<linearGradient id="paint45_linear_12_14" x1="927.455" y1="-99.5865" x2="927.455" y2="962.84" gradientUnits="userSpaceOnUse">
<stop stop-color="white"/>
<stop offset="1" stop-color="white" stop-opacity="0"/>
</linearGradient>
<linearGradient id="paint46_linear_12_14" x1="1290.2" y1="-99.6103" x2="1290.2" y2="962.863" gradientUnits="userSpaceOnUse">
<stop stop-color="white"/>
<stop offset="1" stop-color="white" stop-opacity="0"/>
</linearGradient>
<linearGradient id="paint47_linear_12_14" x1="1047.72" y1="-99.6104" x2="1047.72" y2="962.86" gradientUnits="userSpaceOnUse">
<stop stop-color="white"/>
<stop offset="1" stop-color="white" stop-opacity="0"/>
</linearGradient>
<linearGradient id="paint48_linear_12_14" x1="970.864" y1="-99.6147" x2="970.864" y2="962.858" gradientUnits="userSpaceOnUse">
<stop stop-color="white"/>
<stop offset="1" stop-color="white" stop-opacity="0"/>
</linearGradient>
<linearGradient id="paint49_linear_12_14" x1="1127.84" y1="-99.6105" x2="1127.84" y2="962.853" gradientUnits="userSpaceOnUse">
<stop stop-color="white"/>
<stop offset="1" stop-color="white" stop-opacity="0"/>
</linearGradient>
<linearGradient id="paint50_linear_12_14" x1="1266.96" y1="-99.6048" x2="1266.96" y2="962.847" gradientUnits="userSpaceOnUse">
<stop stop-color="white"/>
<stop offset="1" stop-color="white" stop-opacity="0"/>
</linearGradient>
<linearGradient id="paint51_linear_12_14" x1="1205.24" y1="-99.5984" x2="1205.24" y2="962.84" gradientUnits="userSpaceOnUse">
<stop stop-color="white"/>
<stop offset="1" stop-color="white" stop-opacity="0"/>
</linearGradient>
<linearGradient id="paint52_linear_12_14" x1="492.064" y1="-99.6055" x2="492.064" y2="962.85" gradientUnits="userSpaceOnUse">
<stop stop-color="white"/>
<stop offset="1" stop-color="white" stop-opacity="0"/>
</linearGradient>
<linearGradient id="paint53_linear_12_14" x1="1164.43" y1="-99.6092" x2="1164.43" y2="962.865" gradientUnits="userSpaceOnUse">
<stop stop-color="white"/>
<stop offset="1" stop-color="white" stop-opacity="0"/>
</linearGradient>
<linearGradient id="paint54_linear_12_14" x1="626.245" y1="-99.6044" x2="626.245" y2="962.846" gradientUnits="userSpaceOnUse">
<stop stop-color="white"/>
<stop offset="1" stop-color="white" stop-opacity="0"/>
</linearGradient>
<linearGradient id="paint55_linear_12_14" x1="703.647" y1="-99.6024" x2="703.647" y2="962.832" gradientUnits="userSpaceOnUse">
<stop stop-color="white"/>
<stop offset="1" stop-color="white" stop-opacity="0"/>
</linearGradient>
<linearGradient id="paint56_linear_12_14" x1="804.049" y1="-99.6003" x2="804.049" y2="962.826" gradientUnits="userSpaceOnUse">
<stop stop-color="white"/>
<stop offset="1" stop-color="white" stop-opacity="0"/>
</linearGradient>
<linearGradient id="paint57_linear_12_14" x1="881.452" y1="-99.6056" x2="881.452" y2="962.85" gradientUnits="userSpaceOnUse">
<stop stop-color="white"/>
<stop offset="1" stop-color="white" stop-opacity="0"/>
</linearGradient>
<linearGradient id="paint58_linear_12_14" x1="428.233" y1="-99.6056" x2="428.233" y2="962.85" gradientUnits="userSpaceOnUse">
<stop stop-color="white"/>
<stop offset="1" stop-color="white" stop-opacity="0"/>
</linearGradient>
<linearGradient id="paint59_linear_12_14" x1="112.689" y1="-99.6052" x2="112.689" y2="962.852" gradientUnits="userSpaceOnUse">
<stop stop-color="white"/>
<stop offset="1" stop-color="white" stop-opacity="0"/>
</linearGradient>
<linearGradient id="paint60_linear_12_14" x1="55.7212" y1="-99.5917" x2="55.7212" y2="962.835" gradientUnits="userSpaceOnUse">
<stop stop-color="white"/>
<stop offset="1" stop-color="white" stop-opacity="0"/>
</linearGradient>
<linearGradient id="paint61_linear_12_14" x1="137.243" y1="-99.6113" x2="137.243" y2="962.859" gradientUnits="userSpaceOnUse">
<stop stop-color="white"/>
<stop offset="1" stop-color="white" stop-opacity="0"/>
</linearGradient>
<linearGradient id="paint62_linear_12_14" x1="383.156" y1="-99.6006" x2="383.156" y2="962.842" gradientUnits="userSpaceOnUse">
<stop stop-color="white"/>
<stop offset="1" stop-color="white" stop-opacity="0"/>
</linearGradient>
<linearGradient id="paint63_linear_12_14" x1="381.456" y1="-99.6112" x2="381.456" y2="962.855" gradientUnits="userSpaceOnUse">
<stop stop-color="white"/>
<stop offset="1" stop-color="white" stop-opacity="0"/>
</linearGradient>
<linearGradient id="paint64_linear_12_14" x1="296" y1="-99.588" x2="296" y2="962.834" gradientUnits="userSpaceOnUse">
<stop stop-color="white"/>
<stop offset="1" stop-color="white" stop-opacity="0"/>
</linearGradient>
<linearGradient id="paint65_linear_12_14" x1="321.219" y1="-99.6024" x2="321.219" y2="962.835" gradientUnits="userSpaceOnUse">
<stop stop-color="white"/>
<stop offset="1" stop-color="white" stop-opacity="0"/>
</linearGradient>
<linearGradient id="paint66_linear_12_14" x1="294.052" y1="-99.6046" x2="294.052" y2="962.846" gradientUnits="userSpaceOnUse">
<stop stop-color="white"/>
<stop offset="1" stop-color="white" stop-opacity="0"/>
</linearGradient>
<linearGradient id="paint67_linear_12_14" x1="133.447" y1="-99.6047" x2="133.447" y2="962.845" gradientUnits="userSpaceOnUse">
<stop stop-color="white"/>
<stop offset="1" stop-color="white" stop-opacity="0"/>
</linearGradient>
<linearGradient id="paint68_linear_12_14" x1="216.65" y1="-99.6114" x2="216.65" y2="962.864" gradientUnits="userSpaceOnUse">
<stop stop-color="white"/>
<stop offset="1" stop-color="white" stop-opacity="0"/>
</linearGradient>
<linearGradient id="paint69_linear_12_14" x1="116.248" y1="-99.5983" x2="116.248" y2="962.828" gradientUnits="userSpaceOnUse">
<stop stop-color="white"/>
<stop offset="1" stop-color="white" stop-opacity="0"/>
</linearGradient>
<linearGradient id="paint70_linear_12_14" x1="38.8454" y1="-99.6056" x2="38.8454" y2="962.85" gradientUnits="userSpaceOnUse">
<stop stop-color="white"/>
<stop offset="1" stop-color="white" stop-opacity="0"/>
</linearGradient>
<linearGradient id="paint71_linear_12_14" x1="428.233" y1="-99.6065" x2="428.233" y2="962.848" gradientUnits="userSpaceOnUse">
<stop stop-color="white"/>
<stop offset="1" stop-color="white" stop-opacity="0"/>
</linearGradient>
<linearGradient id="paint72_linear_12_14" x1="112.689" y1="-99.6057" x2="112.689" y2="962.847" gradientUnits="userSpaceOnUse">
<stop stop-color="white"/>
<stop offset="1" stop-color="white" stop-opacity="0"/>
</linearGradient>
<linearGradient id="paint73_linear_12_14" x1="55.7211" y1="-99.6202" x2="55.7211" y2="962.85" gradientUnits="userSpaceOnUse">
<stop stop-color="white"/>
<stop offset="1" stop-color="white" stop-opacity="0"/>
</linearGradient>
<linearGradient id="paint74_linear_12_14" x1="137.243" y1="-99.5963" x2="137.243" y2="962.844" gradientUnits="userSpaceOnUse">
<stop stop-color="white"/>
<stop offset="1" stop-color="white" stop-opacity="0"/>
</linearGradient>
<linearGradient id="paint75_linear_12_14" x1="383.156" y1="-99.5921" x2="383.156" y2="962.845" gradientUnits="userSpaceOnUse">
<stop stop-color="white"/>
<stop offset="1" stop-color="white" stop-opacity="0"/>
</linearGradient>
<linearGradient id="paint76_linear_12_14" x1="381.456" y1="-99.588" x2="381.456" y2="962.844" gradientUnits="userSpaceOnUse">
<stop stop-color="white"/>
<stop offset="1" stop-color="white" stop-opacity="0"/>
</linearGradient>
<linearGradient id="paint77_linear_12_14" x1="296" y1="-99.6264" x2="296" y2="962.851" gradientUnits="userSpaceOnUse">
<stop stop-color="white"/>
<stop offset="1" stop-color="white" stop-opacity="0"/>
</linearGradient>
<linearGradient id="paint78_linear_12_14" x1="294.052" y1="-99.6037" x2="294.052" y2="962.847" gradientUnits="userSpaceOnUse">
<stop stop-color="white"/>
<stop offset="1" stop-color="white" stop-opacity="0"/>
</linearGradient>
<linearGradient id="paint79_linear_12_14" x1="216.65" y1="-99.5925" x2="216.65" y2="962.84" gradientUnits="userSpaceOnUse">
<stop stop-color="white"/>
<stop offset="1" stop-color="white" stop-opacity="0"/>
</linearGradient>
<linearGradient id="paint80_linear_12_14" x1="193.686" y1="-99.626" x2="193.686" y2="962.851" gradientUnits="userSpaceOnUse">
<stop stop-color="white"/>
<stop offset="1" stop-color="white" stop-opacity="0"/>
</linearGradient>
<linearGradient id="paint81_linear_12_14" x1="191.738" y1="-99.6035" x2="191.738" y2="962.847" gradientUnits="userSpaceOnUse">
<stop stop-color="white"/>
<stop offset="1" stop-color="white" stop-opacity="0"/>
</linearGradient>
<linearGradient id="paint82_linear_12_14" x1="114.336" y1="-99.5917" x2="114.336" y2="962.847" gradientUnits="userSpaceOnUse">
<stop stop-color="white"/>
<stop offset="1" stop-color="white" stop-opacity="0"/>
</linearGradient>
<linearGradient id="paint83_linear_12_14" x1="116.248" y1="-99.6116" x2="116.248" y2="962.852" gradientUnits="userSpaceOnUse">
<stop stop-color="white"/>
<stop offset="1" stop-color="white" stop-opacity="0"/>
</linearGradient>
<linearGradient id="paint84_linear_12_14" x1="38.8454" y1="-99.607" x2="38.8454" y2="962.849" gradientUnits="userSpaceOnUse">
<stop stop-color="white"/>
<stop offset="1" stop-color="white" stop-opacity="0"/>
</linearGradient>
<linearGradient id="paint85_linear_12_14" x1="970.864" y1="-99.602" x2="970.864" y2="962.834" gradientUnits="userSpaceOnUse">
<stop stop-color="white"/>
<stop offset="1" stop-color="white" stop-opacity="0"/>
</linearGradient>
<linearGradient id="paint86_linear_12_14" x1="1127.84" y1="-99.6018" x2="1127.84" y2="962.824" gradientUnits="userSpaceOnUse">
<stop stop-color="white"/>
<stop offset="1" stop-color="white" stop-opacity="0"/>
</linearGradient>
<linearGradient id="paint87_linear_12_14" x1="1205.24" y1="-99.6076" x2="1205.24" y2="962.867" gradientUnits="userSpaceOnUse">
<stop stop-color="white"/>
<stop offset="1" stop-color="white" stop-opacity="0"/>
</linearGradient>
<linearGradient id="paint88_linear_12_14" x1="1868.75" y1="-99.6073" x2="1868.75" y2="962.849" gradientUnits="userSpaceOnUse">
<stop stop-color="white"/>
<stop offset="1" stop-color="white" stop-opacity="0"/>
</linearGradient>
<linearGradient id="paint89_linear_12_14" x1="1553.2" y1="-134.038" x2="1553.2" y2="928.414" gradientUnits="userSpaceOnUse">
<stop stop-color="white"/>
<stop offset="1" stop-color="white" stop-opacity="0"/>
</linearGradient>
<linearGradient id="paint90_linear_12_14" x1="1394.93" y1="-99.6055" x2="1394.93" y2="962.848" gradientUnits="userSpaceOnUse">
<stop stop-color="white"/>
<stop offset="1" stop-color="white" stop-opacity="0"/>
</linearGradient>
<linearGradient id="paint91_linear_12_14" x1="1496.24" y1="-99.614" x2="1496.24" y2="962.857" gradientUnits="userSpaceOnUse">
<stop stop-color="white"/>
<stop offset="1" stop-color="white" stop-opacity="0"/>
</linearGradient>
<linearGradient id="paint92_linear_12_14" x1="1207.16" y1="-99.6168" x2="1207.16" y2="962.864" gradientUnits="userSpaceOnUse">
<stop stop-color="white"/>
<stop offset="1" stop-color="white" stop-opacity="0"/>
</linearGradient>
<linearGradient id="paint93_linear_12_14" x1="1577.76" y1="-99.6009" x2="1577.76" y2="962.841" gradientUnits="userSpaceOnUse">
<stop stop-color="white"/>
<stop offset="1" stop-color="white" stop-opacity="0"/>
</linearGradient>
<linearGradient id="paint94_linear_12_14" x1="1823.67" y1="-99.5993" x2="1823.67" y2="962.841" gradientUnits="userSpaceOnUse">
<stop stop-color="white"/>
<stop offset="1" stop-color="white" stop-opacity="0"/>
</linearGradient>
<linearGradient id="paint95_linear_12_14" x1="1821.97" y1="-99.5969" x2="1821.97" y2="962.84" gradientUnits="userSpaceOnUse">
<stop stop-color="white"/>
<stop offset="1" stop-color="white" stop-opacity="0"/>
</linearGradient>
<linearGradient id="paint96_linear_12_14" x1="1736.51" y1="-99.6115" x2="1736.51" y2="962.853" gradientUnits="userSpaceOnUse">
<stop stop-color="white"/>
<stop offset="1" stop-color="white" stop-opacity="0"/>
</linearGradient>
<linearGradient id="paint97_linear_12_14" x1="1290.36" y1="-99.6033" x2="1290.36" y2="962.847" gradientUnits="userSpaceOnUse">
<stop stop-color="white"/>
<stop offset="1" stop-color="white" stop-opacity="0"/>
</linearGradient>
<linearGradient id="paint98_linear_12_14" x1="1761.73" y1="-99.6026" x2="1761.73" y2="962.835" gradientUnits="userSpaceOnUse">
<stop stop-color="white"/>
<stop offset="1" stop-color="white" stop-opacity="0"/>
</linearGradient>
<linearGradient id="paint99_linear_12_14" x1="1573.96" y1="-99.6047" x2="1573.96" y2="962.845" gradientUnits="userSpaceOnUse">
<stop stop-color="white"/>
<stop offset="1" stop-color="white" stop-opacity="0"/>
</linearGradient>
<linearGradient id="paint100_linear_12_14" x1="1556.76" y1="-99.6089" x2="1556.76" y2="962.86" gradientUnits="userSpaceOnUse">
<stop stop-color="white"/>
<stop offset="1" stop-color="white" stop-opacity="0"/>
</linearGradient>
<linearGradient id="paint101_linear_12_14" x1="1396.16" y1="-99.6082" x2="1396.16" y2="962.867" gradientUnits="userSpaceOnUse">
<stop stop-color="white"/>
<stop offset="1" stop-color="white" stop-opacity="0"/>
</linearGradient>
<linearGradient id="paint102_linear_12_14" x1="1479.36" y1="-99.6057" x2="1479.36" y2="962.849" gradientUnits="userSpaceOnUse">
<stop stop-color="white"/>
<stop offset="1" stop-color="white" stop-opacity="0"/>
</linearGradient>
<linearGradient id="paint103_linear_12_14" x1="1313.1" y1="-99.6133" x2="1313.1" y2="962.857" gradientUnits="userSpaceOnUse">
<stop stop-color="white"/>
<stop offset="1" stop-color="white" stop-opacity="0"/>
</linearGradient>
<linearGradient id="paint104_linear_12_14" x1="1389.95" y1="-99.6101" x2="1389.95" y2="962.863" gradientUnits="userSpaceOnUse">
<stop stop-color="white"/>
<stop offset="1" stop-color="white" stop-opacity="0"/>
</linearGradient>
<linearGradient id="paint105_linear_12_14" x1="1868.75" y1="-99.6075" x2="1868.75" y2="962.849" gradientUnits="userSpaceOnUse">
<stop stop-color="white"/>
<stop offset="1" stop-color="white" stop-opacity="0"/>
</linearGradient>
<linearGradient id="paint106_linear_12_14" x1="1553.2" y1="-99.6028" x2="1553.2" y2="962.849" gradientUnits="userSpaceOnUse">
<stop stop-color="white"/>
<stop offset="1" stop-color="white" stop-opacity="0"/>
</linearGradient>
<linearGradient id="paint107_linear_12_14" x1="1394.93" y1="-99.6061" x2="1394.93" y2="962.848" gradientUnits="userSpaceOnUse">
<stop stop-color="white"/>
<stop offset="1" stop-color="white" stop-opacity="0"/>
</linearGradient>
<linearGradient id="paint108_linear_12_14" x1="1496.24" y1="-99.5828" x2="1496.24" y2="962.844" gradientUnits="userSpaceOnUse">
<stop stop-color="white"/>
<stop offset="1" stop-color="white" stop-opacity="0"/>
</linearGradient>
<linearGradient id="paint109_linear_12_14" x1="1207.16" y1="-99.5833" x2="1207.16" y2="962.841" gradientUnits="userSpaceOnUse">
<stop stop-color="white"/>
<stop offset="1" stop-color="white" stop-opacity="0"/>
</linearGradient>
<linearGradient id="paint110_linear_12_14" x1="1196.38" y1="-99.6167" x2="1196.38" y2="962.857" gradientUnits="userSpaceOnUse">
<stop stop-color="white"/>
<stop offset="1" stop-color="white" stop-opacity="0"/>
</linearGradient>
<linearGradient id="paint111_linear_12_14" x1="1577.76" y1="-99.6159" x2="1577.76" y2="962.852" gradientUnits="userSpaceOnUse">
<stop stop-color="white"/>
<stop offset="1" stop-color="white" stop-opacity="0"/>
</linearGradient>
<linearGradient id="paint112_linear_12_14" x1="1823.67" y1="-99.5898" x2="1823.67" y2="962.844" gradientUnits="userSpaceOnUse">
<stop stop-color="white"/>
<stop offset="1" stop-color="white" stop-opacity="0"/>
</linearGradient>
<linearGradient id="paint113_linear_12_14" x1="1821.97" y1="-99.6188" x2="1821.97" y2="962.851" gradientUnits="userSpaceOnUse">
<stop stop-color="white"/>
<stop offset="1" stop-color="white" stop-opacity="0"/>
</linearGradient>
<linearGradient id="paint114_linear_12_14" x1="1736.51" y1="-99.615" x2="1736.51" y2="962.849" gradientUnits="userSpaceOnUse">
<stop stop-color="white"/>
<stop offset="1" stop-color="white" stop-opacity="0"/>
</linearGradient>
<linearGradient id="paint115_linear_12_14" x1="1290.36" y1="-99.6078" x2="1290.36" y2="962.848" gradientUnits="userSpaceOnUse">
<stop stop-color="white"/>
<stop offset="1" stop-color="white" stop-opacity="0"/>
</linearGradient>
<linearGradient id="paint116_linear_12_14" x1="1634.2" y1="-99.6153" x2="1634.2" y2="962.849" gradientUnits="userSpaceOnUse">
<stop stop-color="white"/>
<stop offset="1" stop-color="white" stop-opacity="0"/>
</linearGradient>
<linearGradient id="paint117_linear_12_14" x1="1632.25" y1="-99.6032" x2="1632.25" y2="962.848" gradientUnits="userSpaceOnUse">
<stop stop-color="white"/>
<stop offset="1" stop-color="white" stop-opacity="0"/>
</linearGradient>
<linearGradient id="paint118_linear_12_14" x1="1400.2" y1="-99.6146" x2="1400.2" y2="962.85" gradientUnits="userSpaceOnUse">
<stop stop-color="white"/>
<stop offset="1" stop-color="white" stop-opacity="0"/>
</linearGradient>
<linearGradient id="paint119_linear_12_14" x1="1398.25" y1="-99.6034" x2="1398.25" y2="962.847" gradientUnits="userSpaceOnUse">
<stop stop-color="white"/>
<stop offset="1" stop-color="white" stop-opacity="0"/>
</linearGradient>
<linearGradient id="paint120_linear_12_14" x1="1178.23" y1="-99.6032" x2="1178.23" y2="962.848" gradientUnits="userSpaceOnUse">
<stop stop-color="white"/>
<stop offset="1" stop-color="white" stop-opacity="0"/>
</linearGradient>
<linearGradient id="paint121_linear_12_14" x1="1554.85" y1="-99.6289" x2="1554.85" y2="962.85" gradientUnits="userSpaceOnUse">
<stop stop-color="white"/>
<stop offset="1" stop-color="white" stop-opacity="0"/>
</linearGradient>
<linearGradient id="paint122_linear_12_14" x1="1556.76" y1="-99.59" x2="1556.76" y2="962.837" gradientUnits="userSpaceOnUse">
<stop stop-color="white"/>
<stop offset="1" stop-color="white" stop-opacity="0"/>
</linearGradient>
<linearGradient id="paint123_linear_12_14" x1="1479.36" y1="-99.6065" x2="1479.36" y2="962.849" gradientUnits="userSpaceOnUse">
<stop stop-color="white"/>
<stop offset="1" stop-color="white" stop-opacity="0"/>
</linearGradient>
<linearGradient id="paint124_linear_12_14" x1="1313.1" y1="-99.6087" x2="1313.1" y2="962.849" gradientUnits="userSpaceOnUse">
<stop stop-color="white"/>
<stop offset="1" stop-color="white" stop-opacity="0"/>
</linearGradient>
<linearGradient id="paint125_linear_12_14" x1="1389.95" y1="-99.5947" x2="1389.95" y2="962.841" gradientUnits="userSpaceOnUse">
<stop stop-color="white"/>
<stop offset="1" stop-color="white" stop-opacity="0"/>
</linearGradient>
<linearGradient id="paint126_linear_12_14" x1="1232.97" y1="-99.5885" x2="1232.97" y2="962.838" gradientUnits="userSpaceOnUse">
<stop stop-color="white"/>
<stop offset="1" stop-color="white" stop-opacity="0"/>
</linearGradient>
<clipPath id="clip0_12_14">
<rect width="1920" height="1080" fill="white"/>
</clipPath>
<clipPath id="clip1_12_14">
<rect width="1920" height="1080" fill="white" transform="matrix(1 0 0 -1 0 1080)"/>
</clipPath>
<clipPath id="clip2_12_14">
<rect width="1920" height="228.258" fill="white" transform="matrix(-1 0 0 -1 1917 1162.76)"/>
</clipPath>
<clipPath id="clip3_12_14">
<rect width="5761.3" height="216" fill="white" transform="matrix(1 0 0 -1 -1923.65 1162.76)"/>
</clipPath>
</defs>
</svg>
