<svg width="40" height="40" viewBox="0 0 40 40" fill="none" xmlns="http://www.w3.org/2000/svg">
<g id="Iconsax/Bold/gallery">
<path id="Vector" d="M4.3013 31.6848L4.26797 31.7182C3.81797 30.7348 3.53464 29.6182 3.41797 28.3848C3.53464 29.6015 3.8513 30.7015 4.3013 31.6848ZM15.003 17.3015C16.055 17.3015 17.0639 16.8836 17.8078 16.1397C18.5517 15.3958 18.9696 14.3869 18.9696 13.3348C18.9696 12.2828 18.5517 11.2739 17.8078 10.53C17.0639 9.78608 16.055 9.36816 15.003 9.36816C13.9509 9.36816 12.942 9.78608 12.1981 10.53C11.4542 11.2739 11.0363 12.2828 11.0363 13.3348C11.0363 14.3869 11.4542 15.3958 12.1981 16.1397C12.942 16.8836 13.9509 17.3015 15.003 17.3015Z" fill="#6764FF" fill-opacity="0.8"/>
<path id="Vector_2" d="M26.982 3.3335H13.0154C6.9487 3.3335 3.33203 6.95016 3.33203 13.0168V26.9835C3.33203 28.8002 3.6487 30.3835 4.26536 31.7168C5.6987 34.8835 8.76536 36.6668 13.0154 36.6668H26.982C33.0487 36.6668 36.6654 33.0502 36.6654 26.9835V13.0168C36.6654 6.95016 33.0487 3.3335 26.982 3.3335ZM33.9487 20.8335C32.6487 19.7168 30.5487 19.7168 29.2487 20.8335L22.3154 26.7835C21.0154 27.9002 18.9154 27.9002 17.6154 26.7835L17.0487 26.3168C15.8654 25.2835 13.982 25.1835 12.6487 26.0835L6.41536 30.2668C6.0487 29.3335 5.83203 28.2502 5.83203 26.9835V13.0168C5.83203 8.31683 8.31536 5.8335 13.0154 5.8335H26.982C31.682 5.8335 34.1654 8.31683 34.1654 13.0168V21.0168L33.9487 20.8335Z" fill="#6764FF" fill-opacity="0.8"/>
</g>
</svg>
