<svg width="30" height="31" viewBox="0 0 30 31" fill="none" xmlns="http://www.w3.org/2000/svg">
<g id="Group 794">
<circle id="Ellipse 401" cx="15" cy="15.5469" r="15" fill="#F82083" fill-opacity="0.1"/>
<g id="&#240;&#159;&#166;&#134; icon &#34;eye&#34;">
<g id="Group">
<path id="Vector" d="M12.9423 16.9912C12.6595 16.5779 12.5 16.0776 12.5 15.5411C12.5 14.1054 13.6601 12.9453 15.0958 12.9453C16.5314 12.9453 17.6915 14.1054 17.6915 15.5411C17.6915 16.9767 16.5314 18.1368 15.0958 18.1368" stroke="#F82083" stroke-opacity="0.5" stroke-width="1.5" stroke-linecap="round" stroke-linejoin="round"/>
<path id="Vector_2" d="M19.1262 10.8883C17.9009 10.0182 16.5232 9.54688 15.0948 9.54688C12.5353 9.54688 10.1498 11.055 8.48943 13.6653C7.83686 14.6877 7.83686 16.4061 8.48943 17.4285C10.1498 20.0387 12.5353 21.5469 15.0948 21.5469C17.6543 21.5469 20.0398 20.0387 21.7003 17.4285C22.3528 16.4061 22.3528 14.6877 21.7003 13.6653" stroke="#F82083" stroke-opacity="0.5" stroke-width="1.5" stroke-linecap="round" stroke-linejoin="round"/>
</g>
</g>
</g>
</svg>
