<svg width="28" height="31" viewBox="0 0 28 31" fill="none" xmlns="http://www.w3.org/2000/svg">
<g id="&#240;&#159;&#166;&#134; icon &#34;notification&#34;">
<g id="Group">
<path id="Vector" d="M13.6615 27.3847C10.0726 27.3847 6.48371 26.8715 3.07965 25.8451C1.7858 25.4429 0.800011 24.6246 0.368728 23.5566C-0.0779579 22.4887 0.0760717 21.3097 0.784608 20.2556L2.55595 17.6065C2.92562 17.0517 3.26449 15.9422 3.26449 15.2903V11.282C3.26449 6.12244 7.93159 1.91992 13.6615 1.91992C19.3914 1.91992 24.0585 6.12244 24.0585 11.282V15.2903C24.0585 15.9283 24.3974 17.0517 24.7671 17.6204L26.523 20.2556C27.1853 21.2543 27.3086 22.4609 26.8619 23.5566C26.4152 24.6523 25.4448 25.4845 24.228 25.8451C20.8393 26.8715 17.2504 27.3847 13.6615 27.3847ZM13.6615 4.00038C9.21003 4.00038 5.57493 7.25976 5.57493 11.282V15.2903C5.57493 16.3028 5.11284 17.8007 4.54293 18.6745L2.77159 21.3236C2.43273 21.8368 2.34031 22.3777 2.54055 22.8354C2.72538 23.307 3.18747 23.6676 3.81899 23.8618C10.2574 25.8035 17.081 25.8035 23.5194 23.8618C24.0739 23.6953 24.5052 23.3208 24.7055 22.8215C24.9057 22.3222 24.8595 21.7813 24.5514 21.3236L22.7801 18.6745C22.1948 17.773 21.7481 16.2889 21.7481 15.2764V11.282C21.7481 7.25976 18.1284 4.00038 13.6615 4.00038Z" fill="#6764FF"/>
<path id="Vector_2" d="M16.5258 4.37491C16.4179 4.37491 16.3101 4.36104 16.2023 4.3333C15.7556 4.22235 15.3243 4.13913 14.9085 4.08365C13.5992 3.93108 12.3362 4.0143 11.1501 4.3333C10.7188 4.45813 10.2568 4.3333 9.96414 4.04204C9.67149 3.75078 9.57907 3.33469 9.7485 2.9602C10.38 1.50388 11.9203 0.546875 13.6762 0.546875C15.4322 0.546875 16.9724 1.49001 17.604 2.9602C17.758 3.33469 17.681 3.75078 17.3883 4.04204C17.1573 4.26396 16.8338 4.37491 16.5258 4.37491Z" fill="#6764FF"/>
<path id="Vector_3" d="M13.6589 30.5468C12.134 30.5468 10.6553 29.9921 9.57714 29.0212C8.49893 28.0503 7.88281 26.7188 7.88281 25.3457H10.1933C10.1933 26.164 10.5629 26.9685 11.2098 27.551C11.8567 28.1335 12.7501 28.4664 13.6589 28.4664C15.5688 28.4664 17.1245 27.0655 17.1245 25.3457H19.435C19.435 28.2167 16.8473 30.5468 13.6589 30.5468Z" fill="#6764FF"/>
</g>
</g>
</svg>
