<svg width="24" height="23" viewBox="0 0 24 23" fill="none" xmlns="http://www.w3.org/2000/svg">
<g id="&#240;&#159;&#166;&#134; icon &#34;wallet 3&#34;">
<g id="Group">
<path id="Vector" d="M12.8664 10.623H6.44531" stroke="white" stroke-width="2" stroke-linecap="round" stroke-linejoin="round"/>
<path id="Vector_2" d="M1.09375 10.624V5.57749C1.09375 3.34918 2.85955 1.54688 5.04272 1.54688H11.0572C13.2403 1.54688 15.0061 2.93411 15.0061 5.16242" stroke="white" stroke-width="2" stroke-linecap="round" stroke-linejoin="round"/>
<path id="Vector_3" d="M17.6602 11.7706C17.1251 12.2949 16.8682 13.1032 17.0823 13.9333C17.3498 14.9492 18.3344 15.5937 19.3618 15.5937H20.357V17.1775C20.357 19.5915 18.4414 21.5467 16.0763 21.5467H5.37448C3.00938 21.5467 1.09375 19.5915 1.09375 17.1775V9.53134C1.09375 7.11734 3.00938 5.16211 5.37448 5.16211H16.0763C18.4307 5.16211 20.357 7.12826 20.357 9.53134V11.1152H19.2012C18.6019 11.1152 18.0561 11.3555 17.6602 11.7706Z" stroke="white" stroke-width="2" stroke-linecap="round" stroke-linejoin="round"/>
<path id="Vector_4" d="M22.4969 12.2294V14.4795C22.4969 15.0912 22.0045 15.5937 21.3945 15.5937H19.3291C18.1733 15.5937 17.1139 14.7308 17.0176 13.5511C16.9534 12.8629 17.2101 12.2185 17.6596 11.7706C18.0556 11.3555 18.6015 11.1152 19.2008 11.1152H21.3945C22.0045 11.1152 22.4969 11.6177 22.4969 12.2294Z" stroke="white" stroke-width="2" stroke-linecap="round" stroke-linejoin="round"/>
</g>
</g>
</svg>
