<svg width="50" height="50" viewBox="0 0 50 50" fill="none" xmlns="http://www.w3.org/2000/svg">
<g id="Group 817">
<circle id="Ellipse 402" cx="25" cy="25" r="25" fill="#F82083" fill-opacity="0.8"/>
<g id="Group 34910">
<path id="Vector" d="M22.3915 7.40693L13.658 10.6798C11.6452 11.4324 10 13.8127 10 15.9655V28.9696C10 31.0349 11.3652 33.7477 13.0279 34.9904L20.5538 40.6086C23.0216 42.4638 27.0821 42.4638 29.5499 40.6086L37.0759 34.9904C38.7386 33.7477 40.1038 31.0349 40.1038 28.9696V15.9655C40.1038 13.8127 38.4586 11.4324 36.4458 10.6798L27.7122 7.40693C26.2245 6.86436 23.8442 6.86436 22.3915 7.40693Z" stroke="white" stroke-width="2" stroke-linecap="round" stroke-linejoin="round"/>
<path id="Vector_2" d="M25.0322 22.6161H24.8046C23.1594 22.5636 21.8468 21.1984 21.8468 19.5357C21.8468 17.838 23.2294 16.4553 24.9271 16.4553C26.6249 16.4553 28.0075 17.838 28.0075 19.5357C27.99 21.2159 26.6774 22.5636 25.0322 22.6161ZM21.5492 27.5167C19.869 28.6368 19.869 30.4746 21.5492 31.5947C23.457 32.8724 26.5898 32.8724 28.4976 31.5947C30.1778 30.4746 30.1778 28.6368 28.4976 27.5167C26.6074 26.239 23.4745 26.239 21.5492 27.5167Z" stroke="white" stroke-width="2" stroke-linecap="round" stroke-linejoin="round"/>
</g>
</g>
</svg>
