<svg width="31" height="30" viewBox="0 0 31 30" fill="none" xmlns="http://www.w3.org/2000/svg">
<path d="M14.2679 26.8373C10.6156 26.8373 6.9633 26.3241 3.49914 25.2978C2.18245 24.8955 1.17925 24.0772 0.740357 23.0093C0.285784 21.9413 0.442533 20.7624 1.16358 19.7083L2.96619 17.0592C3.34239 16.5044 3.68724 15.3948 3.68724 14.7429V10.7346C3.68724 5.57508 8.43674 1.37256 14.2679 1.37256C20.0989 1.37256 24.8484 5.57508 24.8484 10.7346V14.7429C24.8484 15.3809 25.1933 16.5044 25.5695 17.073L27.3564 19.7083C28.0304 20.7069 28.1558 21.9136 27.7013 23.0093C27.2467 24.105 26.2592 24.9372 25.0208 25.2978C21.5724 26.3241 17.9201 26.8373 14.2679 26.8373ZM14.2679 3.45301C9.73776 3.45301 6.03848 6.71239 6.03848 10.7346V14.7429C6.03848 15.7554 5.56823 17.2533 4.98826 18.1271L3.18564 20.7762C2.8408 21.2894 2.74675 21.8303 2.95052 22.288C3.13862 22.7596 3.60887 23.1202 4.25154 23.3144C10.8036 25.2562 17.7477 25.2562 24.2998 23.3144C24.8641 23.148 25.303 22.7735 25.5068 22.2742C25.7105 21.7749 25.6635 21.2339 25.35 20.7762L23.5474 18.1271C22.9518 17.2256 22.4972 15.7415 22.4972 14.7291V10.7346C22.4972 6.71239 18.8136 3.45301 14.2679 3.45301Z" fill="#D04E62"/>
<path d="M17.1821 3.82804C17.0723 3.82804 16.9626 3.81417 16.8529 3.78643C16.3983 3.67547 15.9594 3.59225 15.5362 3.53677C14.2038 3.38421 12.9185 3.46743 11.7115 3.78643C11.2726 3.91126 10.8024 3.78643 10.5046 3.49516C10.2068 3.2039 10.1127 2.78781 10.2852 2.41333C10.9278 0.95701 12.4953 0 14.2822 0C16.0691 0 17.6366 0.94314 18.2793 2.41333C18.4361 2.78781 18.3577 3.2039 18.0599 3.49516C17.8247 3.71708 17.4956 3.82804 17.1821 3.82804Z" fill="#D04E62"/>
<path d="M14.2687 30C12.7169 30 11.2121 29.4452 10.1149 28.4743C9.01762 27.5034 8.39062 26.1719 8.39062 24.7988H10.7419C10.7419 25.6171 11.118 26.4216 11.7764 27.0041C12.4347 27.5866 13.3438 27.9195 14.2687 27.9195C16.2124 27.9195 17.7955 26.5187 17.7955 24.7988H20.1468C20.1468 27.6699 17.5134 30 14.2687 30Z" fill="#D04E62"/>
</svg>
