<svg width="374" height="301" viewBox="0 0 374 301" fill="none" xmlns="http://www.w3.org/2000/svg">
<path d="M186.943 300.505C278.039 300.505 351.887 233.357 351.887 150.526C351.887 67.6949 278.039 0.546875 186.943 0.546875C95.8477 0.546875 22 67.6949 22 150.526C22 233.357 95.8477 300.505 186.943 300.505Z" fill="white"/>
<path opacity="0.1" d="M186.943 300.505C278.039 300.505 351.887 233.357 351.887 150.526C351.887 67.6949 278.039 0.546875 186.943 0.546875C95.8477 0.546875 22 67.6949 22 150.526C22 233.357 95.8477 300.505 186.943 300.505Z" fill="#6764FF"/>
<path d="M79.7406 201.467L0.859375 201.25L1.18393 103.812L55.7285 103.963L79.9913 126.159L79.7406 201.467Z" fill="white"/>
<path opacity="0.3" d="M55.7301 103.961L55.6562 126.09L79.9929 126.157L55.7301 103.961Z" fill="#6764FF"/>
<path d="M80.4901 126.131C80.4871 126.091 80.4785 126.052 80.4645 126.014C80.459 125.999 80.4549 125.985 80.4479 125.97C80.4245 125.921 80.3913 125.875 80.35 125.836L56.0871 103.641C56.0444 103.602 55.9946 103.571 55.9399 103.549C55.9246 103.543 55.909 103.538 55.8932 103.534C55.851 103.52 55.8071 103.512 55.7625 103.51C55.752 103.51 55.7424 103.504 55.7319 103.504L1.18785 103.355C1.0546 103.355 0.926811 103.404 0.832591 103.489C0.738371 103.575 0.685439 103.691 0.685439 103.812L0.359375 201.248C0.359375 201.369 0.412307 201.485 0.506527 201.571C0.600747 201.657 0.728537 201.705 0.861784 201.705L79.74 201.924C79.8733 201.924 80.0011 201.875 80.0953 201.79C80.1895 201.704 80.2424 201.588 80.2424 201.467L80.4936 126.159C80.4961 126.15 80.4906 126.141 80.4901 126.131ZM56.2273 105.067L67.431 115.313L78.7824 125.697L56.161 125.635L56.2273 105.067ZM1.36419 200.794L1.68574 104.27L55.225 104.418L55.1531 126.09C55.1531 126.211 55.2061 126.327 55.3003 126.413C55.3945 126.499 55.5223 126.547 55.6555 126.547L79.4898 126.613L79.2421 201.007L1.36419 200.794Z" fill="#262626"/>
<path d="M240.552 197.57L132.984 197.274L133.427 64.4023L207.807 64.6075L240.894 94.8751L240.552 197.57Z" fill="white"/>
<path opacity="0.3" d="M207.811 64.6055L207.711 94.7818L240.898 94.8731L207.811 64.6055Z" fill="#6764FF"/>
<path d="M241.391 94.8468C241.388 94.807 241.38 94.7677 241.366 94.7298C241.36 94.7148 241.356 94.7006 241.349 94.6842C241.325 94.6346 241.292 94.5893 241.251 94.5503L208.165 64.2827C208.122 64.2445 208.072 64.2135 208.018 64.1913C208.002 64.1849 207.987 64.1812 207.971 64.1762C207.929 64.163 207.885 64.1548 207.84 64.152C207.83 64.152 207.82 64.1465 207.81 64.1465L133.429 63.9414C133.296 63.9414 133.168 63.9895 133.074 64.0752C132.98 64.1609 132.927 64.2771 132.927 64.3982L132.484 197.27C132.484 197.391 132.537 197.507 132.632 197.593C132.726 197.678 132.854 197.727 132.987 197.727L240.553 198.023C240.686 198.023 240.814 197.975 240.908 197.889C241.002 197.803 241.055 197.687 241.055 197.566L241.397 94.871C241.397 94.8655 241.392 94.8568 241.391 94.8468ZM208.306 65.7107L239.682 94.4142L208.21 94.3274L208.306 65.7107ZM133.489 196.817L133.929 64.8596L207.304 65.062L207.204 94.7815C207.204 94.9026 207.257 95.0188 207.351 95.1045C207.445 95.1902 207.573 95.2383 207.706 95.2383L240.391 95.3297L240.052 197.111L133.489 196.817Z" fill="#262626"/>
<path d="M372.772 201.463L293.891 201.246L294.215 103.809L348.76 103.959L373.023 126.155L372.772 201.463Z" fill="white"/>
<path opacity="0.3" d="M348.761 103.961L348.688 126.09L373.024 126.157L348.761 103.961Z" fill="#6764FF"/>
<path d="M373.52 126.129C373.517 126.089 373.509 126.05 373.495 126.012C373.489 125.997 373.485 125.983 373.478 125.968C373.454 125.919 373.421 125.873 373.38 125.834L349.117 103.638C349.074 103.6 349.025 103.569 348.97 103.547C348.955 103.541 348.939 103.537 348.923 103.532C348.881 103.518 348.837 103.51 348.793 103.508C348.782 103.508 348.773 103.502 348.762 103.502L294.218 103.352C294.084 103.352 293.957 103.4 293.862 103.485C293.768 103.571 293.715 103.687 293.715 103.808L293.391 201.245C293.391 201.367 293.444 201.483 293.538 201.568C293.632 201.654 293.76 201.702 293.893 201.702L372.774 201.92C372.908 201.92 373.035 201.872 373.13 201.786C373.224 201.7 373.277 201.584 373.277 201.463L373.528 126.155C373.526 126.148 373.52 126.139 373.52 126.129ZM349.259 105.065L360.459 115.31L371.812 125.695L349.191 125.632L349.259 105.065ZM294.396 200.792L294.717 104.268L348.257 104.416L348.185 126.088C348.185 126.209 348.238 126.325 348.332 126.411C348.426 126.497 348.554 126.545 348.687 126.545L372.522 126.611L372.274 201.005L294.396 200.792Z" fill="#262626"/>
<path d="M160.077 141.831C164.236 141.831 167.607 138.765 167.607 134.984C167.607 131.202 164.236 128.137 160.077 128.137C155.918 128.137 152.547 131.202 152.547 134.984C152.547 138.765 155.918 141.831 160.077 141.831Z" fill="#292A2E"/>
<path d="M211.71 141.831C215.869 141.831 219.24 138.765 219.24 134.984C219.24 131.202 215.869 128.137 211.71 128.137C207.551 128.137 204.18 131.202 204.18 134.984C204.18 138.765 207.551 141.831 211.71 141.831Z" fill="#292A2E"/>
<path d="M195.99 153.918H175.799C175.666 153.918 175.538 153.869 175.444 153.784C175.35 153.698 175.297 153.582 175.297 153.461C175.297 153.34 175.35 153.223 175.444 153.138C175.538 153.052 175.666 153.004 175.799 153.004H195.99C196.123 153.004 196.251 153.052 196.345 153.138C196.44 153.223 196.493 153.34 196.493 153.461C196.493 153.582 196.44 153.698 196.345 153.784C196.251 153.869 196.123 153.918 195.99 153.918Z" fill="#262626"/>
<path d="M152.311 154.57C156.021 154.57 159.028 153.131 159.028 151.355C159.028 149.58 156.021 148.141 152.311 148.141C148.601 148.141 145.594 149.58 145.594 151.355C145.594 153.131 148.601 154.57 152.311 154.57Z" fill="white"/>
<path d="M219.483 154.57C223.193 154.57 226.2 153.131 226.2 151.355C226.2 149.58 223.193 148.141 219.483 148.141C215.773 148.141 212.766 149.58 212.766 151.355C212.766 153.131 215.773 154.57 219.483 154.57Z" fill="white"/>
<g opacity="0.4">
<path d="M152.311 154.57C156.021 154.57 159.028 153.131 159.028 151.355C159.028 149.58 156.021 148.141 152.311 148.141C148.601 148.141 145.594 149.58 145.594 151.355C145.594 153.131 148.601 154.57 152.311 154.57Z" fill="#6764FF"/>
<path d="M219.483 154.57C223.193 154.57 226.2 153.131 226.2 151.355C226.2 149.58 223.193 148.141 219.483 148.141C215.773 148.141 212.766 149.58 212.766 151.355C212.766 153.131 215.773 154.57 219.483 154.57Z" fill="#6764FF"/>
</g>
<path d="M241.061 95.9606C228.239 82.5753 210.095 74.3691 190.619 73.1472C171.144 71.9253 151.932 77.7877 137.21 89.4449C112.614 108.923 105.056 141.305 118.833 168.202C121.6 173.592 125.147 178.62 129.38 183.154L130.285 184.129L62.8654 249.186C61.6326 250.393 60.9746 251.995 61.0351 253.641C61.0955 255.288 61.8695 256.846 63.1882 257.975C64.5069 259.105 66.2634 259.715 68.0745 259.671C69.8856 259.628 71.6045 258.936 72.8563 257.745L140.259 192.697L141.385 193.464C155.93 203.384 173.999 208.059 192.109 206.587C210.22 205.114 227.09 197.6 239.469 185.49C251.849 173.381 258.861 157.534 259.155 141.004C259.45 124.473 253.005 108.428 241.063 95.9606H241.061ZM245.288 143.666C244.244 157.411 237.509 170.285 226.44 179.694C215.372 189.103 200.792 194.347 185.64 194.369C184.241 194.369 182.837 194.324 181.429 194.232C171.593 193.625 162.075 190.821 153.717 186.067C145.359 181.314 138.42 174.759 133.516 166.983C128.612 159.207 125.894 150.451 125.602 141.491C125.311 132.531 127.456 123.645 131.847 115.619C136.238 107.594 142.739 100.677 150.773 95.4836C158.808 90.2898 168.128 86.9791 177.907 85.8451C187.686 84.711 197.621 85.7887 206.832 88.9824C216.044 92.1762 224.246 97.3874 230.711 104.154C235.891 109.538 239.846 115.802 242.348 122.584C244.85 129.366 245.849 136.531 245.288 143.666Z" fill="#6764FF"/>
</svg>
